<?xml version="1.0" encoding="UTF-8" standalone="no"?>
<!-- Created with Inkscape (http://www.inkscape.org/) -->

<svg
   width="199"
   height="48"
   viewBox="0 0 52.652081 12.699999"
   version="1.1"
   id="svg1"
   inkscape:version="1.3.2 (1:1.3.2+202311252150+091e20ef0f)"
   sodipodi:docname="logo.svg"
   xmlns:inkscape="http://www.inkscape.org/namespaces/inkscape"
   xmlns:sodipodi="http://sodipodi.sourceforge.net/DTD/sodipodi-0.dtd"
   xmlns:xlink="http://www.w3.org/1999/xlink"
   xmlns="http://www.w3.org/2000/svg"
   xmlns:svg="http://www.w3.org/2000/svg">
  <sodipodi:namedview
     id="namedview1"
     pagecolor="#ffffff"
     bordercolor="#000000"
     borderopacity="0.25"
     inkscape:showpageshadow="2"
     inkscape:pageopacity="0.0"
     inkscape:pagecheckerboard="0"
     inkscape:deskcolor="#d1d1d1"
     inkscape:document-units="mm"
     inkscape:zoom="3.4315657"
     inkscape:cx="104.61697"
     inkscape:cy="16.173376"
     inkscape:window-width="1452"
     inkscape:window-height="863"
     inkscape:window-x="903"
     inkscape:window-y="90"
     inkscape:window-maximized="0"
     inkscape:current-layer="layer1" />
  <defs
     id="defs1">
    <linearGradient
       inkscape:collect="always"
       xlink:href="#57c5c572-8ba7-4573-8aff-11cd4e76ef22"
       id="linearGradient5"
       x1="0"
       y1="0"
       x2="32"
       y2="0"
       gradientUnits="userSpaceOnUse" />
    <linearGradient
       data-v-fde0c5aa=""
       gradientTransform="rotate(25)"
       id="57c5c572-8ba7-4573-8aff-11cd4e76ef22"
       x1="0"
       y1="0"
       x2="1"
       y2="0">
      <stop
         data-v-fde0c5aa=""
         offset="0%"
         stop-color="#422F75"
         stop-opacity="1"
         id="stop2" />
      <stop
         data-v-fde0c5aa=""
         offset="100%"
         stop-color="#C0B3EC"
         stop-opacity="1"
         id="stop3" />
    </linearGradient>
    <linearGradient
       inkscape:collect="always"
       xlink:href="#57c5c572-8ba7-4573-8aff-11cd4e76ef22"
       id="linearGradient1"
       gradientUnits="userSpaceOnUse"
       x1="0"
       y1="0"
       x2="32"
       y2="0" />
  </defs>
  <g
     inkscape:label="Layer 1"
     inkscape:groupmode="layer"
     id="layer1">
    <g
       id="g5"
       transform="matrix(0.26458333,0,0,0.26458333,-16.936642,-31.21482)">
      <g
         data-v-fde0c5aa=""
         id="bb70165a-c505-4f19-8701-7607125b83ec"
         fill="#282335"
         transform="matrix(2.4869547,0,0,2.4869547,112.69767,117.15732)">
        <path
           d="m 0.7,7.7 c 0,1.46 0.45,2.66 1.34,3.6 0.89,0.94 2.02,1.41 3.38,1.41 1.23,0 2.28,-0.4 3.16,-1.2 L 9.74,12.6 H 10.3 L 8.85,11.24 C 9.71,10.29 10.14,9.11 10.14,7.7 10.14,6.24 9.69,5.04 8.8,4.1 7.91,3.16 6.78,2.69 5.42,2.69 4.06,2.69 2.93,3.16 2.04,4.1 1.15,5.04 0.7,6.24 0.7,7.7 Z m 4.56,0.7 3.01,2.81 c -0.78,0.73 -1.73,1.1 -2.85,1.1 -1.24,0 -2.27,-0.44 -3.08,-1.32 C 1.53,10.11 1.12,9.02 1.12,7.7 1.12,6.38 1.53,5.29 2.34,4.41 3.15,3.53 4.18,3.09 5.42,3.09 c 1.24,0 2.27,0.44 3.08,1.32 0.81,0.88 1.22,1.97 1.22,3.29 0,1.29 -0.4,2.37 -1.18,3.25 L 5.82,8.4 Z m 10.85,1.68 c 0,0.56 -0.2,1.07 -0.6,1.53 -0.41,0.45 -0.92,0.68 -1.52,0.68 -1.06,0 -1.59,-0.69 -1.59,-2.07 V 6.16 h -0.42 v 4.2 c 0,0.72 0.16,1.29 0.48,1.71 0.32,0.43 0.78,0.64 1.39,0.64 0.58,0 1.07,-0.14 1.45,-0.41 0.38,-0.28 0.66,-0.66 0.81,-1.16 v 1.46 h 0.42 V 6.16 H 16.11 Z M 18.66,9.74 18.28,9.9 c 0.63,1.87 1.68,2.81 3.15,2.81 0.92,0 1.61,-0.26 2.08,-0.78 0.46,-0.52 0.7,-1.16 0.7,-1.92 0,-0.35 -0.06,-0.66 -0.18,-0.95 C 23.91,8.78 23.78,8.55 23.64,8.37 23.49,8.19 23.29,8.02 23.03,7.86 22.77,7.7 22.56,7.58 22.39,7.5 22.23,7.43 22.01,7.34 21.73,7.22 21.69,7.21 21.57,7.16 21.38,7.08 21.18,7.01 21.06,6.96 21.01,6.94 20.97,6.91 20.86,6.87 20.69,6.8 20.52,6.73 20.41,6.67 20.36,6.64 20.31,6.6 20.22,6.54 20.09,6.45 19.96,6.37 19.87,6.3 19.82,6.24 19.78,6.18 19.71,6.1 19.63,6 19.54,5.9 19.49,5.8 19.45,5.7 19.42,5.61 19.39,5.5 19.36,5.38 19.33,5.25 19.32,5.12 19.32,4.98 c 0,-0.57 0.2,-1.03 0.59,-1.36 0.4,-0.33 0.89,-0.5 1.48,-0.5 1.13,0 1.92,0.65 2.35,1.95 L 24.15,4.9 C 23.94,4.23 23.61,3.69 23.14,3.29 22.68,2.89 22.1,2.69 21.41,2.69 c -0.69,0 -1.29,0.21 -1.8,0.64 -0.51,0.43 -0.77,1 -0.77,1.71 0,0.35 0.08,0.67 0.22,0.95 0.15,0.28 0.36,0.52 0.65,0.72 0.28,0.2 0.54,0.36 0.77,0.46 0.22,0.11 0.52,0.24 0.88,0.38 0.28,0.1 0.48,0.17 0.58,0.22 0.1,0.05 0.27,0.13 0.52,0.25 0.24,0.11 0.41,0.22 0.52,0.32 0.11,0.11 0.23,0.24 0.38,0.41 0.14,0.17 0.24,0.36 0.3,0.57 0.06,0.22 0.08,0.46 0.08,0.73 0,0.67 -0.19,1.22 -0.56,1.63 -0.38,0.41 -0.95,0.61 -1.7,0.61 -1.24,0 -2.17,-0.85 -2.82,-2.55 z m 13.6,-0.36 c 0,-1.01 -0.3,-1.82 -0.89,-2.42 -0.6,-0.61 -1.34,-0.91 -2.24,-0.91 -0.61,0 -1.15,0.18 -1.61,0.54 -0.47,0.37 -0.8,0.85 -1,1.45 V 6.16 H 26.1 v 9.52 h 0.42 v -4.96 c 0.2,0.6 0.53,1.08 1,1.45 0.46,0.36 1,0.54 1.61,0.54 0.9,0 1.64,-0.3 2.24,-0.91 0.59,-0.6 0.89,-1.41 0.89,-2.42 z m -0.44,0 c 0,0.9 -0.27,1.61 -0.8,2.13 -0.54,0.52 -1.15,0.78 -1.84,0.78 -0.77,0 -1.4,-0.28 -1.91,-0.84 -0.5,-0.56 -0.75,-1.25 -0.75,-2.07 0,-0.82 0.25,-1.51 0.75,-2.07 0.51,-0.56 1.14,-0.84 1.91,-0.84 0.69,0 1.3,0.26 1.84,0.78 0.53,0.52 0.8,1.23 0.8,2.13 z m 7,-0.32 H 33.98 C 34,8.38 34.25,7.77 34.73,7.25 c 0.48,-0.52 1.06,-0.78 1.74,-0.78 0.68,0 1.24,0.25 1.68,0.77 0.44,0.51 0.66,1.12 0.67,1.82 z m -4.87,0.42 h 5.31 c 0.01,-0.05 0.01,-0.1 0.01,-0.16 0,-0.99 -0.26,-1.79 -0.78,-2.38 -0.52,-0.6 -1.19,-0.89 -2.02,-0.89 -0.85,0 -1.55,0.31 -2.11,0.94 -0.56,0.62 -0.84,1.42 -0.84,2.39 0,0.95 0.29,1.75 0.88,2.38 0.59,0.63 1.28,0.95 2.07,0.95 1.23,0 2.15,-0.58 2.76,-1.75 l -0.37,-0.22 c -0.54,1.02 -1.33,1.54 -2.36,1.54 -0.69,0 -1.29,-0.27 -1.78,-0.81 -0.49,-0.55 -0.75,-1.21 -0.77,-1.99 z m 6.94,-0.1 c 0,-0.83 0.25,-1.52 0.75,-2.08 0.5,-0.55 1.15,-0.83 1.94,-0.83 0.94,0 1.64,0.36 2.1,1.09 V 6.87 c -0.47,-0.55 -1.17,-0.82 -2.1,-0.82 -0.88,0 -1.63,0.31 -2.22,0.94 -0.6,0.63 -0.9,1.43 -0.9,2.39 0,0.96 0.3,1.76 0.9,2.39 0.59,0.63 1.34,0.94 2.22,0.94 0.94,0 1.64,-0.27 2.1,-0.82 V 11.2 c -0.23,0.43 -0.52,0.72 -0.87,0.87 -0.34,0.15 -0.75,0.22 -1.23,0.22 -0.79,0 -1.44,-0.28 -1.94,-0.83 -0.5,-0.56 -0.75,-1.25 -0.75,-2.08 z m 6.89,-5.46 v 2.24 h -1.05 v 0.42 h 1.05 V 12.6 H 48.2 V 6.58 h 1.05 V 6.16 H 48.2 V 3.92 Z m 5.6,3.04 0.25,-0.39 C 53.27,6.22 52.92,6.05 52.57,6.05 c -0.78,0 -1.28,0.46 -1.5,1.38 V 6.16 h -0.42 v 6.44 h 0.42 V 8.68 c 0,-0.51 0.13,-1 0.38,-1.47 0.25,-0.47 0.57,-0.7 0.97,-0.7 0.42,0 0.74,0.15 0.96,0.45 z m 1.49,0.36 c 0.37,-0.29 0.72,-0.51 1.04,-0.66 0.32,-0.15 0.72,-0.22 1.2,-0.22 1.13,0 1.7,0.51 1.7,1.54 V 9.13 C 58.32,8.82 57.69,8.67 56.94,8.67 c -0.69,0 -1.29,0.18 -1.79,0.54 -0.5,0.35 -0.75,0.86 -0.75,1.5 0,0.68 0.21,1.19 0.63,1.53 0.42,0.33 0.93,0.5 1.52,0.5 0.59,0 1.09,-0.13 1.49,-0.39 0.39,-0.26 0.65,-0.61 0.77,-1.04 v 1.29 h 0.42 V 7.98 c 0,-0.64 -0.16,-1.13 -0.5,-1.46 -0.34,-0.33 -0.88,-0.5 -1.62,-0.5 -0.37,0 -0.72,0.05 -1.05,0.16 -0.33,0.11 -0.58,0.22 -0.75,0.32 -0.18,0.11 -0.4,0.26 -0.67,0.46 z m -0.03,3.39 c 0,-0.51 0.2,-0.92 0.59,-1.21 0.4,-0.29 0.9,-0.44 1.51,-0.44 0.67,0 1.3,0.17 1.87,0.5 v 0.8 c 0,0.58 -0.22,1.05 -0.65,1.43 -0.44,0.37 -0.96,0.56 -1.54,0.56 -0.56,0 -1,-0.14 -1.31,-0.42 -0.32,-0.28 -0.47,-0.69 -0.47,-1.22 z"
           id="path2" />
      </g>
      <g
         data-v-fde0c5aa=""
         id="cc7f5a48-4253-4cf2-b65b-e173ffab017a"
         stroke="none"
         fill="url(#57c5c572-8ba7-4573-8aff-11cd4e76ef22)"
         transform="matrix(1.4393486,0,0,1.4393486,65.379385,119.28073)"
         style="fill:url(#linearGradient5)">
        <path
           d="M 0,16.024 15.976,32 32,15.976 16.024,0 Z m 15.989,7.323 -7.336,-7.336 14.694,-0.022 z"
           id="path3"
           style="fill:url(#linearGradient1)" />
      </g>
      <g
         data-v-fde0c5aa=""
         id="b3439c61-6a6a-4cb0-8ac6-312a2f14bd9c"
         fill="#282335"
         transform="matrix(0.34917709,0,0,0.34917709,116.26395,156.82939)">
        <path
           d="M 9.95,8.86 C 9.95,8.11 9.83,7.41 9.6,6.79 9.38,6.17 9.07,5.64 8.65,5.19 8.23,4.75 7.73,4.4 7.15,4.16 6.58,3.92 5.94,3.79 5.24,3.79 4.54,3.79 3.89,3.92 3.32,4.16 2.74,4.4 2.24,4.75 1.82,5.19 1.4,5.64 1.08,6.17 0.85,6.79 0.63,7.41 0.5,8.11 0.5,8.86 c 0,0.77 0.13,1.47 0.35,2.09 0.23,0.61 0.55,1.15 0.97,1.59 0.42,0.45 0.92,0.79 1.5,1.03 0.57,0.23 1.22,0.36 1.92,0.36 0.36,0 0.71,-0.04 1.03,-0.11 0.32,-0.07 0.63,-0.14 0.93,-0.27 l 2.11,2.28 c 0.06,0.07 0.13,0.1 0.2,0.13 C 9.58,15.99 9.66,16 9.76,16 h 0.6 L 7.78,13.24 c 0.34,-0.21 0.65,-0.46 0.91,-0.75 0.27,-0.3 0.51,-0.63 0.69,-1 C 9.56,11.13 9.7,10.72 9.8,10.28 9.9,9.83 9.95,9.37 9.95,8.86 Z m -0.74,0 c 0,0.7 -0.08,1.32 -0.28,1.86 -0.19,0.55 -0.46,1.03 -0.81,1.4 C 7.77,12.5 7.35,12.81 6.86,13.01 6.37,13.2 5.84,13.3 5.24,13.3 4.65,13.3 4.1,13.2 3.61,13.01 3.12,12.81 2.7,12.5 2.35,12.12 2,11.75 1.74,11.27 1.54,10.72 1.34,10.18 1.25,9.56 1.25,8.86 1.25,8.18 1.34,7.55 1.54,7 1.74,6.45 2,5.98 2.35,5.6 2.7,5.22 3.12,4.91 3.61,4.72 4.1,4.52 4.65,4.41 5.24,4.41 c 0.6,0 1.13,0.11 1.62,0.31 0.49,0.19 0.91,0.5 1.26,0.88 0.35,0.38 0.62,0.85 0.81,1.4 0.2,0.55 0.28,1.18 0.28,1.86 z M 26.36,3.92 h -0.71 -1.36 v 0.27 c 0,0.15 0.1,0.23 0.28,0.25 h 0.17 c 0.1,0 0.24,0.01 0.4,0.01 0.17,0 0.34,0.02 0.51,0.02 v 5.57 c 0,0.46 -0.07,0.88 -0.21,1.29 -0.14,0.4 -0.34,0.75 -0.6,1.05 -0.27,0.29 -0.58,0.51 -0.96,0.68 -0.37,0.17 -0.79,0.25 -1.27,0.25 -0.48,0 -0.91,-0.08 -1.29,-0.25 -0.38,-0.17 -0.7,-0.4 -0.95,-0.7 -0.27,-0.29 -0.45,-0.64 -0.59,-1.03 -0.14,-0.4 -0.21,-0.83 -0.21,-1.29 V 4.47 c 0.17,0 0.34,-0.02 0.51,-0.02 0.16,0 0.3,-0.01 0.4,-0.01 h 0.17 c 0.18,-0.02 0.28,-0.1 0.28,-0.25 V 3.92 h -1.36 -0.71 -1.18 v 0.27 c 0,0.15 0.09,0.23 0.27,0.25 h 0.14 c 0.07,0 0.17,0.01 0.31,0.01 0.14,0 0.29,0.02 0.46,0.02 v 5.57 c 0,0.54 0.08,1.05 0.25,1.52 0.17,0.48 0.42,0.9 0.74,1.25 0.32,0.35 0.73,0.63 1.19,0.83 0.46,0.19 1,0.29 1.57,0.29 0.57,0 1.09,-0.1 1.55,-0.29 0.47,-0.2 0.87,-0.48 1.19,-0.83 0.33,-0.35 0.58,-0.77 0.75,-1.25 0.16,-0.47 0.26,-0.98 0.26,-1.52 V 4.47 c 0.17,0 0.31,-0.02 0.45,-0.02 0.14,0 0.25,-0.01 0.32,-0.01 h 0.13 c 0.18,-0.02 0.28,-0.1 0.28,-0.25 V 3.92 Z m 17.77,9.3 -0.46,-0.05 -3.78,-9.26 h -0.72 l -3.79,9.26 -0.45,0.05 c -0.18,0.01 -0.27,0.11 -0.27,0.28 v 0.32 h 0.45 0.3 0.25 0.1 1.31 V 13.5 c 0,-0.19 -0.11,-0.27 -0.32,-0.28 -0.01,0 -0.04,-0.02 -0.08,-0.02 -0.05,0 -0.1,-0.01 -0.2,-0.01 -0.1,0 -0.22,0 -0.36,-0.02 l 0.98,-2.42 0.07,-0.18 h 4.73 l 0.07,0.18 0.98,2.42 c -0.14,0.02 -0.25,0.02 -0.35,0.02 -0.1,0 -0.17,0.01 -0.21,0.01 -0.04,0 -0.07,0.02 -0.09,0.02 -0.21,0.01 -0.32,0.09 -0.32,0.28 v 0.32 h 1.32 0.1 0.26 0.28 0.46 V 13.5 c 0,-0.17 -0.08,-0.27 -0.26,-0.28 z m -4.8,-8 c 0.02,-0.08 0.07,-0.18 0.09,-0.28 0.03,-0.1 0.07,-0.19 0.1,-0.31 0.03,0.12 0.07,0.21 0.1,0.31 0.03,0.1 0.07,0.18 0.1,0.27 l 1.96,4.83 h -4.3 z m 22.13,-1.3 h -0.63 -1.22 v 0.27 c 0,0.15 0.1,0.23 0.28,0.25 h 0.14 c 0.07,0 0.18,0.01 0.32,0.01 0.14,0 0.31,0.02 0.48,0.02 v 7.75 c 0,0.13 0,0.27 0.01,0.41 L 54.43,4.05 C 54.39,3.99 54.36,3.95 54.32,3.93 54.28,3.92 54.24,3.91 54.17,3.91 h -0.35 -1.19 v 0.28 c 0,0.15 0.09,0.23 0.28,0.25 h 0.14 c 0.07,0 0.16,0.01 0.3,0.01 0.14,0 0.3,0.02 0.47,0.02 v 8.79 c -0.17,0 -0.33,0.01 -0.47,0.01 -0.14,0 -0.23,0.02 -0.3,0.02 h -0.14 c -0.19,0.01 -0.28,0.09 -0.28,0.25 v 0.28 h 1.19 0.61 1.22 v -0.28 c 0,-0.16 -0.1,-0.24 -0.28,-0.25 h -0.14 c -0.07,0 -0.2,-0.02 -0.34,-0.02 -0.14,0 -0.29,-0.01 -0.46,-0.01 V 5.49 c 0,-0.13 0,-0.27 -0.01,-0.41 l 6.44,8.6 c 0.07,0.1 0.14,0.14 0.25,0.14 h 0.35 V 4.47 c 0.17,0 0.31,-0.02 0.45,-0.02 0.14,0 0.25,-0.01 0.32,-0.01 h 0.13 c 0.18,-0.02 0.28,-0.1 0.28,-0.25 V 3.92 Z m 16.73,0 h -0.2 -7.29 -0.21 -0.1 v 2.04 h 0.35 c 0.2,0 0.28,-0.11 0.3,-0.33 0,-0.1 0.02,-0.46 0.05,-1.11 h 2.9 v 8.74 c -0.17,0 -0.31,0.01 -0.45,0.01 -0.14,0 -0.25,0.02 -0.32,0.02 h -0.13 c -0.18,0.01 -0.28,0.09 -0.28,0.25 v 0.28 h 1.18 0.71 1.19 v -0.28 c 0,-0.16 -0.09,-0.24 -0.28,-0.25 h -0.14 c -0.07,0 -0.16,-0.02 -0.3,-0.02 -0.14,0 -0.3,-0.01 -0.47,-0.01 V 4.52 h 2.89 c 0.04,0.72 0.05,1.08 0.05,1.11 0.02,0.22 0.12,0.33 0.31,0.33 h 0.34 V 3.92 Z m 16.52,0 H 94 92.64 v 0.27 c 0,0.15 0.1,0.23 0.28,0.25 h 0.17 c 0.09,0 0.23,0.01 0.4,0.01 0.17,0 0.34,0.02 0.51,0.02 v 5.57 c 0,0.46 -0.07,0.88 -0.21,1.29 -0.14,0.4 -0.34,0.75 -0.61,1.05 -0.26,0.29 -0.57,0.51 -0.95,0.68 -0.38,0.17 -0.8,0.25 -1.27,0.25 -0.48,0 -0.91,-0.08 -1.29,-0.25 -0.38,-0.17 -0.7,-0.4 -0.95,-0.7 -0.27,-0.29 -0.45,-0.64 -0.59,-1.03 -0.14,-0.4 -0.21,-0.83 -0.21,-1.29 V 4.47 c 0.17,0 0.34,-0.02 0.5,-0.02 0.17,0 0.31,-0.01 0.41,-0.01 H 89 c 0.18,-0.02 0.28,-0.1 0.28,-0.25 V 3.92 h -1.36 -0.71 -1.18 v 0.27 c 0,0.15 0.08,0.23 0.27,0.25 h 0.14 c 0.07,0 0.16,0.01 0.3,0.01 0.14,0 0.3,0.02 0.47,0.02 v 5.57 c 0,0.54 0.08,1.05 0.25,1.52 0.17,0.48 0.42,0.9 0.74,1.25 0.32,0.35 0.73,0.63 1.19,0.83 0.46,0.19 0.99,0.29 1.57,0.29 0.57,0 1.09,-0.1 1.55,-0.29 0.46,-0.2 0.87,-0.48 1.19,-0.83 0.32,-0.35 0.58,-0.77 0.74,-1.25 0.17,-0.47 0.27,-0.98 0.27,-1.52 V 4.47 c 0.17,0 0.31,-0.02 0.45,-0.02 0.14,0 0.25,-0.01 0.32,-0.01 h 0.13 c 0.18,-0.02 0.28,-0.1 0.28,-0.25 V 3.92 Z m 21.07,0.52 c 0.18,-0.02 0.28,-0.1 0.28,-0.25 V 3.92 h -1.18 -0.5 c -0.07,0 -0.11,0 -0.15,0.01 -0.05,0.02 -0.07,0.06 -0.12,0.12 l -3.89,6.87 c -0.04,0.07 -0.07,0.14 -0.1,0.21 -0.02,0.07 -0.05,0.15 -0.08,0.22 -0.06,-0.15 -0.11,-0.29 -0.18,-0.42 l -4.01,-6.88 c -0.04,-0.06 -0.07,-0.1 -0.11,-0.12 -0.04,-0.01 -0.08,-0.01 -0.15,-0.01 h -0.49 -1.19 v 0.27 c 0,0.15 0.1,0.23 0.28,0.25 h 0.14 c 0.07,0 0.17,0.01 0.31,0.01 0.14,0 0.29,0.02 0.46,0.02 v 8.79 c -0.17,0 -0.32,0.01 -0.46,0.01 -0.14,0 -0.24,0.02 -0.31,0.02 h -0.14 c -0.18,0.01 -0.28,0.09 -0.28,0.25 v 0.28 h 1.19 0.61 1.22 v -0.28 c 0,-0.16 -0.1,-0.24 -0.28,-0.25 h -0.14 c -0.07,0 -0.18,-0.02 -0.32,-0.02 -0.14,0 -0.31,-0.01 -0.48,-0.01 V 5.38 c 0,-0.13 0,-0.26 -0.01,-0.4 l 4,6.93 c 0.07,0.13 0.17,0.19 0.28,0.19 h 0.12 c 0.12,0 0.21,-0.06 0.28,-0.19 l 3.89,-6.93 c -0.02,0.14 -0.02,0.27 -0.02,0.4 v 7.88 c -0.16,0 -0.33,0.01 -0.47,0.01 -0.14,0 -0.25,0.02 -0.32,0.02 h -0.14 c -0.19,0.01 -0.28,0.09 -0.28,0.25 v 0.28 h 1.21 0.63 1.18 v -0.28 c 0,-0.16 -0.1,-0.24 -0.28,-0.25 h -0.13 c -0.07,0 -0.18,-0.02 -0.32,-0.02 -0.14,0 -0.28,-0.01 -0.45,-0.01 V 4.47 c 0.17,0 0.31,-0.02 0.45,-0.02 0.14,0 0.25,-0.01 0.32,-0.01 z m 24.72,5.47 c -0.14,-0.26 -0.33,-0.52 -0.57,-0.7 -0.24,-0.18 -0.49,-0.33 -0.78,-0.46 -0.3,-0.13 -0.62,-0.24 -0.93,-0.34 -0.31,-0.09 -0.61,-0.21 -0.91,-0.3 -0.29,-0.12 -0.56,-0.24 -0.8,-0.4 -0.23,-0.15 -0.42,-0.33 -0.56,-0.56 -0.14,-0.22 -0.22,-0.5 -0.22,-0.84 0,-0.25 0.06,-0.49 0.15,-0.72 0.1,-0.24 0.24,-0.44 0.42,-0.62 0.19,-0.18 0.41,-0.32 0.69,-0.42 0.28,-0.1 0.59,-0.15 0.95,-0.15 0.67,0 1.29,0.11 1.85,0.35 0.04,0.79 0.07,1.24 0.07,1.31 0.01,0.23 0.1,0.35 0.29,0.35 h 0.34 V 4.38 C 139.61,4 138.77,3.81 137.94,3.81 c -0.46,0 -0.87,0.07 -1.23,0.21 -0.36,0.14 -0.66,0.32 -0.9,0.56 -0.23,0.24 -0.43,0.5 -0.56,0.81 -0.12,0.31 -0.18,0.63 -0.18,0.97 0,0.42 0.07,0.78 0.21,1.06 0.14,0.28 0.34,0.5 0.58,0.7 0.23,0.2 0.49,0.34 0.78,0.46 0.29,0.13 0.62,0.24 0.92,0.34 0.31,0.1 0.61,0.19 0.91,0.29 0.3,0.1 0.56,0.24 0.8,0.39 0.24,0.16 0.42,0.34 0.56,0.56 0.14,0.23 0.21,0.52 0.21,0.87 0,0.32 -0.05,0.63 -0.17,0.91 -0.11,0.28 -0.26,0.52 -0.47,0.73 -0.21,0.21 -0.48,0.38 -0.79,0.49 -0.3,0.13 -0.65,0.17 -1.05,0.17 -0.78,0 -1.44,-0.13 -1.97,-0.38 -0.01,-0.2 -0.01,-0.41 -0.03,-0.63 -0.01,-0.22 -0.01,-0.41 -0.03,-0.56 -0.01,-0.15 -0.01,-0.24 -0.01,-0.25 -0.01,-0.23 -0.11,-0.34 -0.31,-0.34 h -0.33 v 1.85 0.18 0.18 c 0.85,0.37 1.73,0.55 2.66,0.55 0.5,0 0.95,-0.08 1.34,-0.24 0.39,-0.15 0.73,-0.38 0.99,-0.64 0.27,-0.27 0.49,-0.59 0.63,-0.95 0.14,-0.37 0.21,-0.76 0.21,-1.18 0,-0.41 -0.07,-0.74 -0.21,-1.01 z m 9.66,-5.99 h -1.19 v 0.27 c 0,0.15 0.1,0.23 0.28,0.25 h 0.14 c 0.07,0 0.17,0.01 0.31,0.01 0.14,0 0.3,0.02 0.46,0.02 v 8.79 c -0.16,0 -0.32,0.01 -0.46,0.01 -0.14,0 -0.24,0.02 -0.31,0.02 h -0.14 c -0.18,0.01 -0.26,0.09 -0.26,0.25 v 0.28 h 1.17 5.94 v -0.6 -1.46 h -0.35 c -0.2,0 -0.28,0.13 -0.29,0.35 0,0.03 -0.02,0.08 -0.02,0.18 0,0.1 0,0.24 -0.01,0.45 -0.02,0.21 -0.03,0.35 -0.03,0.48 h -4.52 V 9.09 h 3.95 V 8.51 h -3.95 v -4 h 4.52 c 0.03,0.61 0.06,0.99 0.06,1.12 0.01,0.22 0.09,0.33 0.29,0.33 h 0.35 V 4.51 3.92 Z m 23.36,0 h -0.63 -1.22 v 0.27 c 0,0.15 0.1,0.23 0.28,0.25 h 0.14 c 0.07,0 0.18,0.01 0.32,0.01 0.14,0 0.31,0.02 0.48,0.02 v 7.75 c 0,0.13 0,0.27 0.01,0.41 l -6.41,-8.58 c -0.04,-0.06 -0.07,-0.1 -0.11,-0.12 -0.05,-0.01 -0.09,-0.02 -0.16,-0.02 h -0.35 -1.19 v 0.28 c 0,0.15 0.1,0.23 0.28,0.25 h 0.14 c 0.07,0 0.17,0.01 0.31,0.01 0.14,0 0.29,0.02 0.46,0.02 v 8.79 c -0.17,0 -0.32,0.01 -0.46,0.01 -0.14,0 -0.24,0.02 -0.31,0.02 h -0.14 c -0.18,0.01 -0.28,0.09 -0.28,0.25 v 0.28 h 1.19 0.62 1.22 v -0.28 c 0,-0.16 -0.1,-0.24 -0.28,-0.25 h -0.14 c -0.07,0 -0.2,-0.02 -0.34,-0.02 -0.14,0 -0.29,-0.01 -0.46,-0.01 V 5.49 c 0,-0.13 0,-0.27 -0.02,-0.41 l 6.44,8.6 c 0.07,0.1 0.14,0.14 0.26,0.14 h 0.35 V 4.47 c 0.16,0 0.3,-0.02 0.44,-0.02 0.14,0 0.26,-0.01 0.33,-0.01 h 0.12 c 0.18,-0.02 0.28,-0.1 0.28,-0.25 V 3.92 Z m 14.93,5.99 c -0.14,-0.26 -0.33,-0.52 -0.57,-0.7 -0.24,-0.18 -0.49,-0.33 -0.78,-0.46 -0.3,-0.13 -0.62,-0.24 -0.93,-0.34 -0.31,-0.09 -0.61,-0.21 -0.91,-0.3 -0.29,-0.12 -0.56,-0.24 -0.8,-0.4 -0.23,-0.15 -0.42,-0.33 -0.56,-0.56 -0.14,-0.22 -0.22,-0.5 -0.22,-0.84 0,-0.25 0.06,-0.49 0.15,-0.72 0.1,-0.24 0.24,-0.44 0.42,-0.62 0.19,-0.18 0.41,-0.32 0.69,-0.42 0.28,-0.1 0.59,-0.15 0.95,-0.15 0.67,0 1.29,0.11 1.85,0.35 0.04,0.79 0.07,1.24 0.07,1.31 0.01,0.23 0.1,0.35 0.29,0.35 h 0.34 V 4.38 C 187.56,4 186.72,3.81 185.89,3.81 c -0.46,0 -0.87,0.07 -1.23,0.21 -0.36,0.14 -0.66,0.32 -0.9,0.56 -0.23,0.24 -0.43,0.5 -0.56,0.81 -0.12,0.31 -0.18,0.63 -0.18,0.97 0,0.42 0.07,0.78 0.21,1.06 0.14,0.28 0.34,0.5 0.58,0.7 0.23,0.2 0.49,0.34 0.78,0.46 0.29,0.13 0.62,0.24 0.92,0.34 0.31,0.1 0.61,0.19 0.91,0.29 0.3,0.1 0.56,0.24 0.8,0.39 0.24,0.16 0.42,0.34 0.56,0.56 0.14,0.23 0.21,0.52 0.21,0.87 0,0.32 -0.05,0.63 -0.17,0.91 -0.11,0.28 -0.26,0.52 -0.47,0.73 -0.21,0.21 -0.48,0.38 -0.79,0.49 -0.3,0.13 -0.65,0.17 -1.05,0.17 -0.78,0 -1.44,-0.13 -1.97,-0.38 -0.01,-0.2 -0.01,-0.41 -0.03,-0.63 -0.01,-0.22 -0.01,-0.41 -0.03,-0.56 -0.01,-0.15 -0.01,-0.24 -0.01,-0.25 -0.01,-0.23 -0.11,-0.34 -0.31,-0.34 h -0.33 v 1.85 0.18 0.18 c 0.85,0.37 1.73,0.55 2.66,0.55 0.5,0 0.95,-0.08 1.34,-0.24 0.39,-0.15 0.73,-0.38 0.99,-0.64 0.27,-0.27 0.49,-0.59 0.63,-0.95 0.14,-0.37 0.21,-0.76 0.21,-1.18 0,-0.41 -0.07,-0.74 -0.21,-1.01 z m 17.74,-1.05 c 0,-0.75 -0.12,-1.45 -0.35,-2.07 -0.22,-0.62 -0.54,-1.15 -0.96,-1.6 -0.42,-0.44 -0.91,-0.79 -1.49,-1.03 -0.57,-0.24 -1.23,-0.37 -1.93,-0.37 -0.7,0 -1.33,0.13 -1.9,0.37 -0.58,0.24 -1.08,0.59 -1.5,1.03 -0.42,0.45 -0.74,0.98 -0.97,1.6 -0.22,0.62 -0.35,1.32 -0.35,2.07 0,0.77 0.13,1.47 0.35,2.09 0.23,0.61 0.55,1.15 0.97,1.59 0.42,0.45 0.92,0.79 1.5,1.03 0.57,0.23 1.2,0.36 1.9,0.36 0.7,0 1.36,-0.13 1.93,-0.36 0.58,-0.24 1.07,-0.58 1.49,-1.03 0.42,-0.44 0.74,-0.98 0.96,-1.59 0.23,-0.62 0.35,-1.32 0.35,-2.09 z m -0.75,0 c 0,0.7 -0.09,1.32 -0.28,1.86 -0.2,0.55 -0.47,1.03 -0.82,1.4 -0.35,0.38 -0.77,0.69 -1.26,0.89 -0.49,0.19 -1.02,0.29 -1.62,0.29 -0.59,0 -1.12,-0.1 -1.61,-0.29 -0.49,-0.2 -0.91,-0.51 -1.26,-0.89 -0.35,-0.37 -0.63,-0.85 -0.83,-1.4 -0.19,-0.54 -0.28,-1.16 -0.28,-1.86 0,-0.68 0.09,-1.31 0.28,-1.86 0.2,-0.55 0.48,-1.02 0.83,-1.4 0.35,-0.38 0.77,-0.69 1.26,-0.88 0.49,-0.2 1.02,-0.31 1.61,-0.31 0.6,0 1.13,0.11 1.62,0.31 0.49,0.19 0.91,0.5 1.26,0.88 0.35,0.38 0.62,0.85 0.82,1.4 0.19,0.55 0.28,1.18 0.28,1.86 z m 17.02,4.43 h -0.1 -0.18 c -0.08,0 -0.17,-0.02 -0.25,-0.02 l -2.97,-3.74 c -0.08,-0.11 -0.2,-0.21 -0.31,-0.28 0.44,-0.04 0.83,-0.14 1.18,-0.29 0.35,-0.15 0.63,-0.35 0.88,-0.59 0.24,-0.24 0.43,-0.52 0.56,-0.82 0.13,-0.31 0.2,-0.66 0.2,-1.04 0,-0.85 -0.28,-1.48 -0.84,-1.93 -0.56,-0.44 -1.42,-0.66 -2.57,-0.66 h -2.4 -1.18 v 0.27 c 0,0.15 0.08,0.23 0.27,0.25 h 0.14 c 0.07,0 0.16,0.01 0.3,0.01 0.14,0 0.3,0.02 0.47,0.02 v 8.79 c -0.17,0 -0.33,0.01 -0.47,0.01 -0.14,0 -0.23,0.02 -0.3,0.02 h -0.14 c -0.19,0.01 -0.28,0.09 -0.28,0.25 v 0.28 h 1.19 0.71 1.18 v -0.28 c 0,-0.16 -0.1,-0.24 -0.28,-0.25 h -0.14 c -0.07,0 -0.17,-0.02 -0.31,-0.02 -0.14,0 -0.28,-0.01 -0.45,-0.01 V 9.34 h 1.18 c 0.19,0 0.33,0.01 0.42,0.05 0.08,0.05 0.16,0.13 0.25,0.23 l 3.18,4.02 c 0.05,0.07 0.09,0.11 0.15,0.14 0.06,0.02 0.13,0.04 0.2,0.04 h 0.07 0.54 0.37 v -0.28 c 0,-0.16 -0.09,-0.24 -0.27,-0.25 z m -4.49,-4.48 h -1.6 V 4.48 h 1.69 c 0.89,0 1.56,0.18 2.02,0.52 0.46,0.33 0.69,0.87 0.69,1.57 0,0.35 -0.06,0.64 -0.19,0.92 -0.12,0.28 -0.32,0.5 -0.56,0.7 -0.23,0.2 -0.53,0.36 -0.88,0.46 -0.35,0.1 -0.74,0.16 -1.17,0.16 z m 18.69,1.1 c -0.14,-0.26 -0.34,-0.52 -0.58,-0.7 -0.24,-0.18 -0.49,-0.33 -0.78,-0.46 -0.3,-0.13 -0.62,-0.24 -0.93,-0.34 -0.3,-0.09 -0.61,-0.21 -0.91,-0.3 -0.29,-0.12 -0.56,-0.24 -0.79,-0.4 -0.24,-0.15 -0.42,-0.33 -0.56,-0.56 -0.14,-0.22 -0.23,-0.5 -0.23,-0.84 0,-0.25 0.06,-0.49 0.16,-0.72 0.09,-0.24 0.23,-0.44 0.42,-0.62 0.18,-0.18 0.4,-0.32 0.68,-0.42 0.28,-0.1 0.59,-0.15 0.95,-0.15 0.68,0 1.29,0.11 1.85,0.35 0.04,0.79 0.07,1.24 0.07,1.31 0.02,0.23 0.1,0.35 0.3,0.35 h 0.33 V 4.38 C 235.76,4 234.92,3.81 234.09,3.81 c -0.46,0 -0.86,0.07 -1.23,0.21 -0.36,0.14 -0.66,0.32 -0.89,0.56 -0.24,0.24 -0.44,0.5 -0.56,0.81 -0.13,0.31 -0.19,0.63 -0.19,0.97 0,0.42 0.07,0.78 0.21,1.06 0.14,0.28 0.34,0.5 0.58,0.7 0.24,0.2 0.49,0.34 0.78,0.46 0.3,0.13 0.62,0.24 0.93,0.34 0.3,0.1 0.6,0.19 0.91,0.29 0.29,0.1 0.56,0.24 0.79,0.39 0.24,0.16 0.42,0.34 0.56,0.56 0.14,0.23 0.21,0.52 0.21,0.87 0,0.32 -0.05,0.63 -0.16,0.91 -0.12,0.28 -0.27,0.52 -0.48,0.73 -0.21,0.21 -0.48,0.38 -0.78,0.49 -0.31,0.13 -0.66,0.17 -1.05,0.17 -0.79,0 -1.45,-0.13 -1.98,-0.38 -0.01,-0.2 -0.01,-0.41 -0.03,-0.63 -0.01,-0.22 -0.01,-0.41 -0.02,-0.56 -0.02,-0.15 -0.02,-0.24 -0.02,-0.25 -0.01,-0.23 -0.11,-0.34 -0.31,-0.34 h -0.33 v 1.85 0.18 0.18 c 0.85,0.37 1.73,0.55 2.66,0.55 0.5,0 0.95,-0.08 1.34,-0.24 0.39,-0.15 0.73,-0.38 1,-0.64 0.26,-0.27 0.49,-0.59 0.63,-0.95 0.14,-0.37 0.21,-0.76 0.21,-1.18 0,-0.41 -0.07,-0.74 -0.21,-1.01 z m 25.97,-5.99 h -0.35 -5.59 -1.19 v 0.27 c 0,0.15 0.1,0.23 0.28,0.25 h 0.14 c 0.07,0 0.17,0.01 0.31,0.01 0.14,0 0.29,0.02 0.46,0.02 v 8.79 c -0.17,0 -0.32,0.01 -0.46,0.01 -0.14,0 -0.24,0.02 -0.31,0.02 h -0.14 c -0.18,0.01 -0.28,0.09 -0.28,0.25 v 0.28 h 1.19 0.71 1.18 v -0.28 c 0,-0.16 -0.08,-0.24 -0.27,-0.25 h -0.14 c -0.07,0 -0.16,-0.02 -0.3,-0.02 -0.14,0 -0.3,-0.01 -0.47,-0.01 V 9.27 h 3.7 v -0.6 h -3.7 V 4.51 h 4.61 c 0.03,0.67 0.06,1.05 0.06,1.12 0.01,0.22 0.11,0.33 0.3,0.33 h 0.34 V 3.92 Z m 17.47,4.94 c 0,-0.75 -0.13,-1.45 -0.35,-2.07 -0.23,-0.62 -0.55,-1.15 -0.97,-1.6 -0.42,-0.44 -0.91,-0.79 -1.48,-1.03 -0.58,-0.24 -1.23,-0.37 -1.93,-0.37 -0.7,0 -1.33,0.13 -1.91,0.37 -0.57,0.24 -1.08,0.59 -1.5,1.03 -0.42,0.45 -0.74,0.98 -0.96,1.6 -0.23,0.62 -0.35,1.32 -0.35,2.07 0,0.77 0.12,1.47 0.35,2.09 0.22,0.61 0.54,1.15 0.96,1.59 0.42,0.45 0.93,0.79 1.5,1.03 0.58,0.23 1.21,0.36 1.91,0.36 0.7,0 1.35,-0.13 1.93,-0.36 0.57,-0.24 1.06,-0.58 1.48,-1.03 0.42,-0.44 0.74,-0.98 0.97,-1.59 0.22,-0.62 0.35,-1.32 0.35,-2.09 z m -0.76,0 c 0,0.7 -0.08,1.32 -0.28,1.86 -0.19,0.55 -0.46,1.03 -0.81,1.4 -0.35,0.38 -0.77,0.69 -1.26,0.89 -0.49,0.19 -1.02,0.29 -1.62,0.29 -0.59,0 -1.12,-0.1 -1.61,-0.29 -0.49,-0.2 -0.91,-0.51 -1.26,-0.89 -0.35,-0.37 -0.63,-0.85 -0.83,-1.4 -0.2,-0.54 -0.28,-1.16 -0.28,-1.86 0,-0.68 0.08,-1.31 0.28,-1.86 0.2,-0.55 0.48,-1.02 0.83,-1.4 0.35,-0.38 0.77,-0.69 1.26,-0.88 0.49,-0.2 1.02,-0.31 1.61,-0.31 0.6,0 1.13,0.11 1.62,0.31 0.49,0.19 0.91,0.5 1.26,0.88 0.35,0.38 0.62,0.85 0.81,1.4 0.2,0.55 0.28,1.18 0.28,1.86 z m 17.03,4.43 h -0.1 -0.18 c -0.09,0 -0.17,-0.02 -0.26,-0.02 l -2.96,-3.74 c -0.09,-0.11 -0.2,-0.21 -0.31,-0.28 0.43,-0.04 0.82,-0.14 1.17,-0.29 0.35,-0.15 0.63,-0.35 0.89,-0.59 0.23,-0.24 0.43,-0.52 0.56,-0.82 0.12,-0.31 0.19,-0.66 0.19,-1.04 0,-0.85 -0.28,-1.48 -0.84,-1.93 -0.56,-0.44 -1.41,-0.66 -2.56,-0.66 h -2.41 -1.17 v 0.27 c 0,0.15 0.08,0.23 0.26,0.25 h 0.14 c 0.07,0 0.17,0.01 0.31,0.01 0.14,0 0.29,0.02 0.46,0.02 v 8.79 c -0.17,0 -0.32,0.01 -0.46,0.01 -0.14,0 -0.24,0.02 -0.31,0.02 h -0.14 c -0.18,0.01 -0.28,0.09 -0.28,0.25 v 0.28 h 1.19 0.72 1.17 v -0.28 c 0,-0.16 -0.1,-0.24 -0.28,-0.25 h -0.14 c -0.07,0 -0.17,-0.02 -0.31,-0.02 -0.14,0 -0.28,-0.01 -0.44,-0.01 V 9.34 h 1.17 c 0.2,0 0.34,0.01 0.42,0.05 0.09,0.05 0.17,0.13 0.25,0.23 l 3.18,4.02 c 0.06,0.07 0.1,0.11 0.16,0.14 0.05,0.02 0.12,0.04 0.19,0.04 h 0.07 0.55 0.36 v -0.28 c 0,-0.16 -0.08,-0.24 -0.26,-0.25 z m -4.5,-4.48 h -1.59 V 4.48 h 1.69 c 0.88,0 1.55,0.18 2.02,0.52 0.46,0.33 0.68,0.87 0.68,1.57 0,0.35 -0.05,0.64 -0.18,0.92 -0.13,0.28 -0.32,0.5 -0.56,0.7 -0.24,0.2 -0.53,0.36 -0.88,0.46 -0.35,0.1 -0.74,0.16 -1.18,0.16 z m 30.45,0.71 c -0.42,-0.41 -1.02,-0.66 -1.8,-0.77 0.32,-0.08 0.6,-0.2 0.85,-0.35 0.25,-0.15 0.48,-0.32 0.64,-0.53 0.17,-0.21 0.31,-0.44 0.4,-0.67 0.08,-0.24 0.14,-0.49 0.14,-0.76 0,-0.39 -0.09,-0.76 -0.21,-1.06 C 322.21,5.07 322,4.8 321.73,4.58 321.47,4.37 321.13,4.2 320.71,4.09 320.29,3.98 319.8,3.92 319.24,3.92 h -2.84 -1.19 v 0.27 c 0,0.15 0.1,0.23 0.28,0.25 h 0.14 c 0.07,0 0.17,0.01 0.31,0.01 0.14,0 0.29,0.02 0.46,0.02 v 8.79 c -0.17,0 -0.32,0.01 -0.46,0.01 -0.14,0 -0.24,0.02 -0.31,0.02 h -0.14 c -0.18,0.01 -0.27,0.09 -0.27,0.25 v 0.28 h 1.18 3.21 c 0.53,0 0.99,-0.06 1.41,-0.18 0.42,-0.13 0.77,-0.3 1.05,-0.54 0.28,-0.23 0.5,-0.51 0.66,-0.85 0.15,-0.34 0.22,-0.71 0.22,-1.13 0,-0.66 -0.21,-1.19 -0.63,-1.6 z m -5.21,-5.04 h 2.13 c 0.88,0 1.54,0.18 1.96,0.52 0.42,0.35 0.63,0.84 0.63,1.51 0,0.25 -0.04,0.52 -0.14,0.76 -0.1,0.23 -0.25,0.44 -0.46,0.64 -0.21,0.2 -0.48,0.35 -0.8,0.46 -0.32,0.11 -0.71,0.18 -1.17,0.18 h -2.15 z m 4.46,8.2 c -0.45,0.38 -1.11,0.56 -1.98,0.56 h -2.48 V 9.07 h 2.5 c 0.42,0 0.78,0.04 1.1,0.14 0.32,0.1 0.6,0.24 0.83,0.41 0.22,0.18 0.39,0.38 0.52,0.63 0.11,0.25 0.18,0.54 0.18,0.85 0,0.69 -0.23,1.21 -0.67,1.58 z m 12.39,-8.24 c 0.18,-0.02 0.26,-0.1 0.26,-0.25 V 3.91 h -1.17 -0.72 -1.19 v 0.28 c 0,0.15 0.1,0.23 0.28,0.25 h 0.14 c 0.07,0 0.17,0.01 0.31,0.01 0.14,0 0.29,0.02 0.46,0.02 v 8.79 c -0.17,0 -0.32,0.01 -0.46,0.01 -0.14,0 -0.24,0.02 -0.31,0.02 h -0.14 c -0.18,0.01 -0.28,0.09 -0.28,0.25 v 0.28 h 1.19 0.72 1.17 v -0.28 c 0,-0.16 -0.08,-0.24 -0.26,-0.25 h -0.14 c -0.07,0 -0.17,-0.02 -0.31,-0.02 -0.14,0 -0.3,-0.01 -0.46,-0.01 V 4.47 c 0.16,0 0.32,-0.02 0.46,-0.02 0.14,0 0.24,-0.01 0.31,-0.01 z m 17.87,4.42 c 0,-0.75 -0.12,-1.45 -0.35,-2.07 -0.22,-0.62 -0.54,-1.15 -0.96,-1.6 -0.42,-0.44 -0.91,-0.79 -1.49,-1.03 -0.57,-0.24 -1.23,-0.37 -1.93,-0.37 -0.7,0 -1.33,0.13 -1.9,0.37 -0.58,0.24 -1.08,0.59 -1.5,1.03 -0.42,0.45 -0.74,0.98 -0.97,1.6 -0.22,0.62 -0.35,1.32 -0.35,2.07 0,0.77 0.13,1.47 0.35,2.09 0.23,0.61 0.55,1.15 0.97,1.59 0.42,0.45 0.92,0.79 1.5,1.03 0.57,0.23 1.2,0.36 1.9,0.36 0.7,0 1.36,-0.13 1.93,-0.36 0.58,-0.24 1.07,-0.58 1.49,-1.03 0.42,-0.44 0.74,-0.98 0.96,-1.59 0.23,-0.62 0.35,-1.32 0.35,-2.09 z m -0.75,0 c 0,0.7 -0.09,1.32 -0.28,1.86 -0.2,0.55 -0.46,1.03 -0.81,1.4 -0.35,0.38 -0.77,0.69 -1.26,0.89 -0.49,0.19 -1.03,0.29 -1.63,0.29 -0.59,0 -1.12,-0.1 -1.61,-0.29 -0.49,-0.2 -0.91,-0.51 -1.26,-0.89 -0.35,-0.37 -0.63,-0.85 -0.82,-1.4 -0.2,-0.54 -0.28,-1.16 -0.28,-1.86 0,-0.68 0.08,-1.31 0.28,-1.86 0.19,-0.55 0.47,-1.02 0.82,-1.4 0.35,-0.38 0.77,-0.69 1.26,-0.88 0.49,-0.2 1.02,-0.31 1.61,-0.31 0.6,0 1.14,0.11 1.63,0.31 0.49,0.19 0.91,0.5 1.26,0.88 0.35,0.38 0.61,0.85 0.81,1.4 0.19,0.55 0.28,1.18 0.28,1.86 z m 16.46,-4.94 h -0.19 -7.3 -0.21 -0.1 v 2.04 h 0.35 c 0.2,0 0.28,-0.11 0.3,-0.33 0,-0.1 0.03,-0.46 0.05,-1.11 h 2.9 v 8.74 c -0.17,0 -0.31,0.01 -0.45,0.01 -0.14,0 -0.25,0.02 -0.32,0.02 h -0.12 c -0.19,0.01 -0.28,0.09 -0.28,0.25 v 0.28 h 1.17 0.72 1.19 v -0.28 c 0,-0.16 -0.1,-0.24 -0.28,-0.25 h -0.14 c -0.07,0 -0.17,-0.02 -0.31,-0.02 -0.14,0 -0.3,-0.01 -0.46,-0.01 V 4.52 h 2.88 c 0.04,0.72 0.06,1.08 0.06,1.11 0.01,0.22 0.11,0.33 0.3,0.33 h 0.34 V 3.92 Z m 9.4,0 h -1.19 v 0.27 c 0,0.15 0.09,0.23 0.28,0.25 h 0.14 c 0.07,0 0.16,0.01 0.3,0.01 0.14,0 0.3,0.02 0.47,0.02 v 8.79 c -0.17,0 -0.33,0.01 -0.47,0.01 -0.14,0 -0.23,0.02 -0.3,0.02 h -0.14 c -0.19,0.01 -0.27,0.09 -0.27,0.25 v 0.28 h 1.18 5.93 v -0.6 -1.46 h -0.35 c -0.19,0 -0.28,0.13 -0.29,0.35 0,0.03 -0.02,0.08 -0.02,0.18 0,0.1 0,0.24 -0.01,0.45 -0.01,0.21 -0.03,0.35 -0.03,0.48 h -4.52 V 9.09 h 3.95 V 8.51 h -3.95 v -4 h 4.52 c 0.03,0.61 0.06,0.99 0.06,1.12 0.01,0.22 0.1,0.33 0.29,0.33 h 0.35 V 4.51 3.92 Z m 22.13,8.29 c -0.03,-0.03 -0.07,-0.06 -0.11,-0.06 -0.03,0 -0.04,0 -0.07,0.02 -0.02,0.01 -0.04,0.04 -0.07,0.05 -0.2,0.18 -0.41,0.34 -0.6,0.48 -0.2,0.14 -0.41,0.24 -0.65,0.33 -0.24,0.1 -0.49,0.17 -0.77,0.21 -0.28,0.05 -0.59,0.07 -0.94,0.07 -0.56,0 -1.1,-0.09 -1.58,-0.3 -0.49,-0.2 -0.89,-0.49 -1.24,-0.87 -0.35,-0.38 -0.65,-0.86 -0.84,-1.4 -0.2,-0.55 -0.3,-1.18 -0.3,-1.88 0,-0.68 0.1,-1.3 0.3,-1.85 0.21,-0.54 0.49,-1 0.85,-1.4 0.36,-0.37 0.8,-0.67 1.3,-0.88 0.51,-0.21 1.05,-0.31 1.65,-0.31 0.9,0 1.73,0.14 2.45,0.47 0.05,0.89 0.09,1.41 0.09,1.52 0.01,0.23 0.1,0.34 0.29,0.34 h 0.34 V 4.51 c -1.18,-0.48 -2.24,-0.7 -3.17,-0.7 -0.71,0 -1.35,0.11 -1.96,0.36 -0.58,0.25 -1.12,0.59 -1.54,1.04 -0.43,0.45 -0.75,0.98 -0.99,1.59 -0.24,0.62 -0.35,1.31 -0.35,2.06 0,0.77 0.13,1.46 0.35,2.09 0.22,0.63 0.55,1.15 0.95,1.59 0.41,0.45 0.9,0.79 1.47,1.03 0.58,0.23 1.19,0.36 1.88,0.36 0.4,0 0.78,-0.03 1.13,-0.1 0.34,-0.07 0.66,-0.17 0.95,-0.29 0.28,-0.13 0.55,-0.28 0.79,-0.45 0.24,-0.18 0.46,-0.36 0.67,-0.59 z m 18.02,-7.77 c 0.18,-0.02 0.28,-0.1 0.28,-0.25 V 3.92 h -1.18 -0.73 -1.17 v 0.27 c 0,0.15 0.1,0.23 0.28,0.25 h 0.12 c 0.07,0 0.19,0.01 0.33,0.01 0.14,0 0.28,0.02 0.44,0.02 v 4.06 h -6.2 V 4.47 c 0.17,0 0.32,-0.02 0.46,-0.02 0.14,0 0.24,-0.01 0.31,-0.01 h 0.14 c 0.18,-0.02 0.27,-0.1 0.27,-0.25 V 3.92 h -1.18 -0.71 -1.19 v 0.27 c 0,0.15 0.1,0.23 0.28,0.25 h 0.14 c 0.07,0 0.17,0.01 0.31,0.01 0.14,0 0.29,0.02 0.46,0.02 v 8.79 c -0.17,0 -0.32,0.01 -0.46,0.01 -0.14,0 -0.24,0.02 -0.31,0.02 h -0.14 c -0.18,0.01 -0.28,0.09 -0.28,0.25 v 0.28 h 1.19 0.71 1.18 v -0.28 c 0,-0.16 -0.09,-0.24 -0.27,-0.25 h -0.14 c -0.07,0 -0.17,-0.02 -0.31,-0.02 -0.14,0 -0.29,-0.01 -0.46,-0.01 V 9.07 h 6.2 v 4.19 c -0.16,0 -0.3,0.01 -0.44,0.01 -0.14,0 -0.26,0.02 -0.33,0.02 h -0.12 c -0.18,0.01 -0.28,0.09 -0.28,0.25 v 0.28 h 1.17 0.73 1.18 v -0.28 c 0,-0.16 -0.1,-0.24 -0.28,-0.25 h -0.13 c -0.07,0 -0.18,-0.02 -0.32,-0.02 -0.14,0 -0.28,-0.01 -0.45,-0.01 V 4.47 c 0.17,0 0.31,-0.02 0.45,-0.02 0.14,0 0.25,-0.01 0.32,-0.01 z"
           id="path4" />
      </g>
    </g>
  </g>
</svg>
