<?xml version="1.0" encoding="UTF-8" standalone="no"?>
<!-- Created with Inkscape (http://www.inkscape.org/) -->

<svg
   width="104.3148mm"
   height="23.359371mm"
   viewBox="0 0 104.3148 23.359371"
   version="1.1"
   id="svg1"
   inkscape:version="1.4.2 (1:1.4.2+202505120737+ebf0e940d0)"
   sodipodi:docname="logo3.svg"
   inkscape:export-filename="logo3.png"
   inkscape:export-xdpi="300"
   inkscape:export-ydpi="300"
   xmlns:inkscape="http://www.inkscape.org/namespaces/inkscape"
   xmlns:sodipodi="http://sodipodi.sourceforge.net/DTD/sodipodi-0.dtd"
   xmlns="http://www.w3.org/2000/svg"
   xmlns:svg="http://www.w3.org/2000/svg">
  <sodipodi:namedview
     id="namedview1"
     pagecolor="#ffffff"
     bordercolor="#000000"
     borderopacity="0.25"
     inkscape:showpageshadow="2"
     inkscape:pageopacity="0.0"
     inkscape:pagecheckerboard="0"
     inkscape:deskcolor="#d1d1d1"
     inkscape:document-units="mm"
     showguides="true"
     inkscape:zoom="0.734547"
     inkscape:cx="-15.655908"
     inkscape:cy="-74.87608"
     inkscape:window-width="2333"
     inkscape:window-height="980"
     inkscape:window-x="26"
     inkscape:window-y="23"
     inkscape:window-maximized="0"
     inkscape:current-layer="g2">
    <sodipodi:guide
       position="14.52933,3.1716759"
       orientation="0,-1"
       id="guide1"
       inkscape:locked="false" />
    <sodipodi:guide
       position="51.688606,21.738475"
       orientation="0,-1"
       id="guide2"
       inkscape:locked="false" />
  </sodipodi:namedview>
  <defs
     id="defs1" />
  <g
     inkscape:label="Layer 1"
     inkscape:groupmode="layer"
     id="layer1"
     transform="translate(-46.978424,-188.71673)">
    <text
       xml:space="preserve"
       style="font-style:normal;font-variant:normal;font-weight:normal;font-stretch:normal;font-size:6.35px;font-family:Roboto;-inkscape-font-specification:Roboto;fill:#033696;fill-opacity:1;stroke:#000000;stroke-width:0.1;stroke-dasharray:none;stroke-opacity:1"
       x="64.796432"
       y="224.7598"
       id="text11-3-1-9"><tspan
         sodipodi:role="line"
         id="tspan11-4-9-3"
         style="font-weight:normal;font-size:6.35px;stroke-width:0.1"
         x="64.796432"
         y="224.7598" /></text>
    <g
       id="g1"
       transform="matrix(0.90681365,0,0,0.90681365,-0.62651706,229.09717)">
      <g
         id="g2"
         transform="translate(0.51275245,0.23152495)">
        <path
           id="rect1-1-8-0"
           style="fill:#1c8deb;fill-opacity:1;stroke-width:0.22055248;stroke-dasharray:none;stroke:#000000;stroke-opacity:1"
           d="m 64.391792,-32.288581 h -3.638203 l -0.0041,0.0041 3.635193,3.635192 0.0071,-0.0071 z" />
        <path
           id="path5-1-0-7"
           style="fill:#033696;fill-opacity:1;stroke-width:0.22055248;stroke-dasharray:none;stroke:#000000;stroke-opacity:1"
           d="m 64.391792,-32.288581 v 3.632182 l 3.628107,-3.628109 -0.0041,-0.0041 z" />
        <path
           id="rect1-2-8-6-8"
           style="fill:#1c8deb;fill-opacity:1;stroke-width:0.22055248;stroke-dasharray:none;stroke:#000000;stroke-opacity:1"
           d="m 64.553782,-28.731367 h -3.638203 l -0.0041,0.0041 3.635193,3.635192 0.0071,-0.0071 z" />
        <path
           id="path5-2-5-6-7"
           style="fill:#033696;fill-opacity:1;stroke-width:0.22055248;stroke-dasharray:none;stroke:#000000;stroke-opacity:1"
           d="m 64.553782,-28.731367 v 3.632182 l 3.628107,-3.628109 -0.0041,-0.0041 z" />
        <path
           id="path4-0-4-0"
           style="fill:#033696;fill-opacity:1;stroke-width:0.22055248;stroke-dasharray:none;stroke:#000000;stroke-opacity:1"
           d="m 64.387807,-35.916599 -0.0031,-0.0031 -3.631119,3.631119 h 3.634218 z" />
        <path
           id="rect1-3-4-0-8"
           style="fill:#1c8deb;fill-opacity:1;stroke-width:0.22055248;stroke-dasharray:none;stroke:#000000;stroke-opacity:1"
           d="m 68.109739,-32.279726 h 3.638203 l 0.0041,0.0041 -3.635193,3.635192 -0.0071,-0.0071 z" />
        <path
           id="path4-6-6-4-0"
           style="fill:#033696;fill-opacity:1;stroke-width:0.22055248;stroke-dasharray:none;stroke:#000000;stroke-opacity:1"
           d="m 68.15761,-35.894578 0.0031,-0.0031 3.631118,3.63112 h -3.634217 z" />
        <path
           id="rect1-3-2-2-6-4"
           style="fill:#1c8deb;fill-opacity:1;stroke-width:0.22055248;stroke-dasharray:none;stroke:#000000;stroke-opacity:1"
           d="m 60.991952,-32.31325 h -3.638203 l -0.0041,-0.0041 3.635192,-3.635192 0.0071,0.0071 z" />
        <path
           id="rect1-3-2-4-8-6-9"
           style="fill:#033696;fill-opacity:1;stroke-width:0.22055248;stroke:#000000;stroke-opacity:1;stroke-dasharray:none"
           d="m 60.922399,-35.979682 -1.818225,-1.818361 -1.823981,1.823983 0.004,0.004 h 3.63819 z" />
        <path
           id="path9-6-7-6"
           style="fill:#1c8deb;fill-opacity:1;stroke-width:0.22055248;stroke:#000000;stroke-opacity:1;stroke-dasharray:none"
           d="m 60.915303,-39.609304 -1.811129,1.811261 1.818225,1.818361 v -3.622526 z" />
        <path
           id="rect1-3-2-4-0-8-6-0"
           style="fill:#033696;fill-opacity:1;stroke-width:0.22055248;stroke-dasharray:none;stroke:#000000;stroke-opacity:1"
           d="m 68.129798,-28.725639 1.818225,1.81836 1.823981,-1.823982 -0.004,-0.004 h -3.63819 z" />
        <path
           id="path9-7-4-9-4"
           style="fill:#1c8deb;fill-opacity:1;stroke-width:0.22055248;stroke-dasharray:none;stroke:#000000;stroke-opacity:1"
           d="m 68.136894,-25.096017 1.811129,-1.811262 -1.818225,-1.81836 v 3.622526 z" />
        <path
           id="rect1-3-2-4-0-4-2-7-2"
           style="fill:#033696;fill-opacity:1;stroke-width:0.22055248;stroke-dasharray:none;stroke:#000000;stroke-opacity:1"
           d="m 68.180948,-35.883146 1.818361,-1.818225 -1.823983,-1.823981 -0.004,0.004 v 3.63819 z" />
        <path
           id="path9-7-3-4-2-2"
           style="fill:#1c8deb;fill-opacity:1;stroke-width:0.22055248;stroke-dasharray:none;stroke:#000000;stroke-opacity:1"
           d="m 71.81057,-35.890242 -1.811261,-1.811129 -1.818361,1.818225 h 3.622526 z" />
        <g
           id="g10-6-2-5"
           transform="matrix(0,-0.25907365,0.25907365,0,29.79973,-9.3079586)"
           style="stroke:#000000;stroke-opacity:1;stroke-width:0.8513119;stroke-dasharray:none">
          <path
             id="rect1-3-2-4-0-4-0-2-9-5"
             style="fill:#033696;fill-opacity:1;stroke-width:0.8513119;stroke:#000000;stroke-opacity:1;stroke-dasharray:none"
             d="m 75.017643,120.06141 -7.018176,-7.0187 -7.040397,7.0404 0.0155,0.0155 h 14.04307 z" />
          <path
             id="path9-7-3-6-9-9-2"
             style="fill:#1c8deb;fill-opacity:1;stroke-width:0.8513119;stroke:#000000;stroke-opacity:1;stroke-dasharray:none"
             d="m 74.990255,106.05141 -6.990788,6.9913 7.018176,7.0187 V 106.0788 Z" />
        </g>
        <path
           id="path4-6-0-9-6-9"
           style="fill:#033696;fill-opacity:1;stroke-width:0.22055248;stroke-dasharray:none;stroke:#000000;stroke-opacity:1"
           d="m 60.987967,-28.685232 -0.0031,0.0031 -3.631118,-3.631119 h 3.634218 z" />
        <path
           id="path6-0-0-0"
           style="fill:#1c8deb;fill-opacity:1;stroke-width:0.22055248;stroke-dasharray:none;stroke:#000000;stroke-opacity:1"
           d="m 64.387807,-35.916599 v 3.628018 h 3.62802 z" />
        <path
           id="path4-20-8-2-2"
           style="fill:#033696;fill-opacity:1;stroke-width:0.22055248;stroke-dasharray:none;stroke:#000000;stroke-opacity:1"
           d="m 64.55985,-39.513051 -0.0031,-0.0031 -3.631118,3.631119 h 3.634217 z" />
        <path
           id="path4-20-5-5-3-6-3"
           style="fill:#033696;fill-opacity:1;stroke:#000000;stroke-width:0.220552;stroke-dasharray:none;stroke-opacity:1"
           d="m 67.217792,-25.142752 -2e-6,-0.0044 -5.135175,3e-6 2.569778,2.56978 z" />
        <path
           id="path4-20-5-7-1-1-8"
           style="fill:#033696;fill-opacity:1;stroke-width:0.22055248;stroke-dasharray:none;stroke:#000000;stroke-opacity:1"
           d="m 57.346102,-34.897502 0.0044,3e-6 -2e-6,5.135174 -2.56978,-2.569778 z" />
        <path
           id="path4-20-5-5-4-1-3-0"
           style="fill:#033696;fill-opacity:1;stroke-width:0.22055248;stroke-dasharray:none;stroke:#000000;stroke-opacity:1"
           d="m 71.755537,-34.80151 -0.0044,3e-6 2e-6,5.135174 2.56978,-2.569778 z" />
        <path
           id="path6-2-0-2-4"
           style="fill:#1c8deb;fill-opacity:1;stroke-width:0.22055248;stroke-dasharray:none;stroke:#000000;stroke-opacity:1"
           d="m 64.55985,-39.513051 v 3.628018 h 3.628019 z" />
        <path
           style="font-size:19.7556px;font-family:Cabin;-inkscape-font-specification:Cabin;fill:#000000;fill-opacity:1;stroke:none;stroke-width:0.333034;stroke-dasharray:none;stroke-opacity:1"
           d="m 88.997936,-27.340178 -1.225014,-1.010701 c 1.041261,-1.567619 1.510854,-3.135237 1.510854,-4.929747 0,-4.579097 -2.960463,-7.508069 -7.043862,-7.508069 -4.0834,0 -7.043862,2.928972 -7.043862,7.508069 0,4.579096 2.960462,7.508067 7.043862,7.508067 1.592529,0 3.021717,-0.453784 4.410071,-1.464486 l 1.327101,1.113835 z m -6.758022,-11.674633 c 3.307556,0 5.12466,2.516441 5.12466,5.734185 0,1.155086 -0.08164,2.413307 -0.980007,3.836539 l -2.143786,-1.91827 -1.02085,1.258221 2.102944,1.73263 c -0.918763,0.680677 -2.164198,0.825063 -3.082961,0.825063 -3.307557,0 -4.920497,-2.516441 -4.920497,-5.734183 0,-3.217744 1.61294,-5.734185 4.920497,-5.734185 z m 17.191105,12.95348 v -10.107014 h -1.83752 v 7.508068 c -0.49001,0.804435 -1.38835,1.155087 -2.30711,1.155087 -1.653786,0 -2.327542,-1.155087 -2.327542,-3.300249 v -5.362906 h -1.837536 v 5.87857 c 0,3.032104 1.347523,4.43471 3.695478,4.43471 1.30669,0 2.14379,-0.433157 2.77671,-1.320101 l 0.20417,1.113835 z m 6.696781,0.288772 c 4.9409,0 5.57384,-2.495814 5.57384,-4.02218 0,-3.135236 -2.7563,-3.898419 -5.26759,-4.682229 -1.71502,-0.53629 -3.08295,-1.07258 -3.08295,-2.413306 0,-1.50574 1.73543,-2.124537 3.20546,-2.124537 1.42918,0 2.71545,0.598171 4.10381,1.299474 l 0.20417,-2.083283 c -0.81669,-0.453784 -2.63379,-0.990075 -4.49174,-0.990075 -3.92006,0 -5.14507,2.372055 -5.14507,4.166565 0,2.475188 2.2867,3.17649 4.65506,3.939673 2.06212,0.66005 3.69548,1.278847 3.69548,2.908346 0,1.629498 -1.65378,2.227668 -3.40964,2.227668 -1.9396,0 -3.51171,-0.742556 -4.4509,-1.443859 l -0.26541,2.289548 c 0.87793,0.474411 2.57253,0.928195 4.67548,0.928195 z m 12.31143,-0.0825 c 2.96046,0 4.47132,-2.310175 4.47132,-5.259772 0,-2.76396 -1.65378,-5.259773 -4.45091,-5.259773 -1.63335,0 -2.51128,0.59817 -3.3688,1.650124 l -0.20418,-1.443859 h -1.42918 v 15.098642 h 1.83753 v -6.270475 c 0.75542,0.990076 2.24587,1.485113 3.14422,1.485113 z m -0.20418,-8.869421 c 1.75586,0 2.79713,1.546993 2.79713,3.609649 0,1.980149 -1.04127,3.609647 -2.79713,3.609647 -1.47002,0 -3.04212,-1.072581 -3.04212,-3.609647 0,-2.433935 1.5721,-3.609649 3.04212,-3.609649 z m 15.10857,3.609649 c 0.0613,-0.350653 0.0816,-0.701304 0.0816,-0.990076 0,-2.722705 -1.81711,-4.269697 -4.30798,-4.269697 -3.10339,0 -4.90008,2.351427 -4.90008,5.177266 0,2.908345 1.87836,5.342279 5.4105,5.342279 1.44961,0 2.57255,-0.433157 3.34839,-0.783809 l -0.24501,-1.464486 c -0.89834,0.412531 -1.96002,0.59817 -2.87879,0.59817 -1.89878,0 -3.4913,-0.804436 -3.75673,-3.609647 z m -4.26716,-3.609649 c 1.6742,0 2.45004,0.907569 2.45004,2.330801 h -5.26758 c 0.36751,-1.464485 1.18418,-2.330801 2.81754,-2.330801 z m 10.61683,8.869421 c 1.61294,0 2.45004,-0.371278 3.04213,-0.763184 l -0.245,-1.485111 c -0.79626,0.391905 -1.67419,0.618797 -2.61338,0.618797 -2.22545,0 -3.28713,-1.44386 -3.28713,-3.650901 0,-2.248295 1.06168,-3.589022 3.28713,-3.589022 0.93919,0 1.7967,0.226892 2.59296,0.618797 l 0.28584,-1.670751 c -0.59209,-0.330026 -1.57211,-0.59817 -3.08297,-0.59817 -3.32797,0 -4.96133,2.289547 -4.96133,5.239146 0,2.825838 1.65378,5.280399 4.98175,5.280399 z m 10.10642,-1.485113 h -0.46959 c -1.98046,0 -2.10295,-0.123758 -2.10295,-2.062656 v -5.321652 h 2.63379 v -1.443859 h -2.63379 v -2.681453 l -1.83753,0.185639 v 2.495814 h -1.5517 l -0.16333,1.443859 h 1.71503 v 6.456113 c 0,1.216968 0.71459,2.413308 2.61337,2.413308 h 1.65378 z m 6.92137,-9.199445 h -0.16335 c -1.22502,0 -2.18462,0.66005 -3.38922,2.042029 l -0.22458,-1.670751 h -1.51087 v 10.107014 h 1.96004 v -7.136789 c 0.34709,-0.639424 1.44961,-1.299474 2.2867,-1.299474 h 0.63293 z m 9.5143,9.199445 h -0.18376 c -1.06169,0 -1.14336,-0.680675 -1.14336,-2.124534 v -2.062656 c 0,-3.650902 -1.00042,-4.847242 -3.53214,-4.847242 -1.3271,0 -2.59295,0.433157 -3.38922,1.051954 l 0.26543,1.505739 c 1.06168,-0.742557 1.87836,-0.907569 2.63379,-0.907569 1.40877,0 2.18462,0.412531 2.18462,2.330801 -2.55213,0.04125 -5.98218,0.763183 -5.98218,3.609648 0,1.691378 1.22501,2.928972 3.08296,2.928972 1.28628,0 2.30713,-0.59817 3.06255,-1.485113 0.40834,0.948822 0.79626,1.485113 2.57255,1.485113 h 0.14292 z m -3.16464,-1.361352 c -0.59209,0.825063 -1.57211,1.361352 -2.55213,1.361352 -0.91876,0 -1.55169,-0.453783 -1.55169,-1.546992 0,-1.505738 1.18419,-2.124535 4.10382,-2.227667 z"
           id="text11-3-15-0"
           aria-label="QuSpectra" />
        <path
           id="path4-20-5-1-7-8"
           style="fill:#033696;fill-opacity:1;stroke:#000000;stroke-width:0.22055248;stroke-dasharray:none;stroke-opacity:1"
           d="m 67.151753,-39.560828 -3e-6,0.0044 -5.135173,-2e-6 2.569778,-2.569777 z" />
      </g>
    </g>
  </g>
</svg>
