<?xml version="1.0" encoding="UTF-8" standalone="no"?>
<!-- Created with Inkscape (http://www.inkscape.org/) -->

<svg
   width="104.3148mm"
   height="23.359371mm"
   viewBox="0 0 104.3148 23.359371"
   version="1.1"
   id="svg1"
   inkscape:version="1.3.2 (1:1.3.2+202311252150+091e20ef0f)"
   sodipodi:docname="logo2.svg"
   inkscape:export-filename="logo2.png"
   inkscape:export-xdpi="300"
   inkscape:export-ydpi="300"
   xmlns:inkscape="http://www.inkscape.org/namespaces/inkscape"
   xmlns:sodipodi="http://sodipodi.sourceforge.net/DTD/sodipodi-0.dtd"
   xmlns="http://www.w3.org/2000/svg"
   xmlns:svg="http://www.w3.org/2000/svg">
  <sodipodi:namedview
     id="namedview1"
     pagecolor="#ffffff"
     bordercolor="#000000"
     borderopacity="0.25"
     inkscape:showpageshadow="2"
     inkscape:pageopacity="0.0"
     inkscape:pagecheckerboard="0"
     inkscape:deskcolor="#d1d1d1"
     inkscape:document-units="mm"
     showguides="false"
     inkscape:zoom="1.0388063"
     inkscape:cx="220.92665"
     inkscape:cy="-166.5373"
     inkscape:window-width="1854"
     inkscape:window-height="1131"
     inkscape:window-x="66"
     inkscape:window-y="32"
     inkscape:window-maximized="1"
     inkscape:current-layer="g1" />
  <defs
     id="defs1" />
  <g
     inkscape:label="Layer 1"
     inkscape:groupmode="layer"
     id="layer1"
     transform="translate(-46.978424,-188.71673)">
    <text
       xml:space="preserve"
       style="font-style:normal;font-variant:normal;font-weight:normal;font-stretch:normal;font-size:6.35px;font-family:Roboto;-inkscape-font-specification:Roboto;fill:#033696;fill-opacity:1;stroke:#000000;stroke-width:0.1;stroke-dasharray:none;stroke-opacity:1"
       x="64.796432"
       y="224.7598"
       id="text11-3-1-9"><tspan
         sodipodi:role="line"
         id="tspan11-4-9-3"
         style="font-weight:normal;font-size:6.35px;stroke-width:0.1"
         x="64.796432"
         y="224.7598" /></text>
    <g
       id="g1"
       transform="matrix(0.90681365,0,0,0.90681365,-0.62651706,229.09717)">
      <g
         id="g11-5-3-1"
         transform="matrix(0.25907365,0,0,0.25907365,40.866657,-67.407167)">
        <path
           id="rect1-1-8-0"
           style="fill:#1c8deb;fill-opacity:1;stroke-width:0"
           d="M 90.804814,135.55445 H 76.761693 l -0.01572,0.0157 14.031501,14.0315 0.02734,-0.0273 z" />
        <path
           id="path5-1-0-7"
           style="fill:#033696;fill-opacity:1;stroke-width:0"
           d="m 90.804814,135.55445 v 14.01988 l 14.004156,-14.00416 -0.0157,-0.0157 z" />
        <g
           id="g7-9-0-5-5"
           transform="translate(0.01543503,14.814657)">
          <path
             id="rect1-2-8-6-8"
             style="fill:#1c8deb;fill-opacity:1;stroke-width:0"
             d="M 90.804814,135.55445 H 76.761693 l -0.01572,0.0157 14.031501,14.0315 0.02734,-0.0273 z" />
          <path
             id="path5-2-5-6-7"
             style="fill:#033696;fill-opacity:1;stroke-width:0"
             d="m 90.804814,135.55445 v 14.01988 l 14.004156,-14.00416 -0.0157,-0.0157 z" />
        </g>
        <path
           id="path4-0-4-0"
           style="fill:#033696;fill-opacity:1;stroke-width:0"
           d="m 90.789433,121.55064 -0.01197,-0.012 -14.015776,14.01578 h 14.02774 z" />
        <g
           id="g8-6-0-4"
           transform="matrix(-1,0,0,1,205.08801,-1.0583333)">
          <path
             id="rect1-3-4-0-8"
             style="fill:#1c8deb;fill-opacity:1;stroke-width:0"
             d="M 99.254674,136.78248 H 85.211553 l -0.01572,0.0157 14.031501,14.0315 0.02734,-0.0273 z" />
          <path
             id="path4-6-6-4-0"
             style="fill:#033696;fill-opacity:1;stroke-width:0"
             d="m 99.239293,122.77867 -0.01197,-0.012 -14.015776,14.01578 h 14.02774 z" />
        </g>
        <path
           id="rect1-3-2-2-6-4"
           style="fill:#1c8deb;fill-opacity:1;stroke-width:0"
           d="M 75.429323,135.45923 H 61.386202 l -0.01572,-0.0157 14.031501,-14.0315 0.02734,0.0273 z" />
        <g
           id="g9-5-2-2">
          <path
             id="rect1-3-2-4-8-6-9"
             style="fill:#033696;fill-opacity:1;stroke-width:0"
             d="m 75.017643,120.06141 -7.018176,-7.0187 -7.040397,7.0404 0.0155,0.0155 h 14.04307 z" />
          <path
             id="path9-6-7-6"
             style="fill:#1c8deb;fill-opacity:1;stroke-width:0"
             d="m 74.990255,106.05141 -6.990788,6.9913 7.018176,7.0187 V 106.0788 Z" />
        </g>
        <g
           id="g9-3-2-5-1"
           transform="rotate(180,91.706529,135.95393)">
          <path
             id="rect1-3-2-4-0-8-6-0"
             style="fill:#033696;fill-opacity:1;stroke-width:0"
             d="m 75.017643,120.06141 -7.018176,-7.0187 -7.040397,7.0404 0.0155,0.0155 h 14.04307 z" />
          <path
             id="path9-7-4-9-4"
             style="fill:#1c8deb;fill-opacity:1;stroke-width:0"
             d="m 74.990255,106.05141 -6.990788,6.9913 7.018176,7.0187 V 106.0788 Z" />
        </g>
        <g
           id="g9-3-8-7-8-2"
           transform="rotate(90,92.122021,136.19685)">
          <path
             id="rect1-3-2-4-0-4-2-7-2"
             style="fill:#033696;fill-opacity:1;stroke-width:0"
             d="m 75.017643,120.06141 -7.018176,-7.0187 -7.040397,7.0404 0.0155,0.0155 h 14.04307 z" />
          <path
             id="path9-7-3-4-2-2"
             style="fill:#1c8deb;fill-opacity:1;stroke-width:0"
             d="m 74.990255,106.05141 -6.990788,6.9913 7.018176,7.0187 V 106.0788 Z" />
        </g>
        <g
           id="g9-3-8-2-0-8-0"
           transform="rotate(-90,90.107277,137.24773)">
          <g
             id="g10-6-2-5"
             transform="translate(0.98934603,1.7400355)">
            <path
               id="rect1-3-2-4-0-4-0-2-9-5"
               style="fill:#033696;fill-opacity:1;stroke-width:0"
               d="m 75.017643,120.06141 -7.018176,-7.0187 -7.040397,7.0404 0.0155,0.0155 h 14.04307 z" />
            <path
               id="path9-7-3-6-9-9-2"
               style="fill:#1c8deb;fill-opacity:1;stroke-width:0"
               d="m 74.990255,106.05141 -6.990788,6.9913 7.018176,7.0187 V 106.0788 Z" />
          </g>
        </g>
        <path
           id="path4-6-0-9-6-9"
           style="fill:#033696;fill-opacity:1;stroke-width:0"
           d="m 75.413942,149.46304 -0.01197,0.012 -14.015776,-14.01578 h 14.02774 z" />
        <path
           id="path6-0-0-0"
           style="fill:#1c8deb;fill-opacity:1;stroke-width:0"
           d="m 90.789433,121.55064 v 14.00381 h 14.003817 z" />
        <path
           id="path4-20-8-2-2"
           style="fill:#033696;fill-opacity:1;stroke-width:0"
           d="m 90.782725,106.3745 -0.01197,-0.012 -14.015776,14.01578 h 14.02774 z" />
        <path
           id="path4-20-5-1-7-8"
           style="fill:#033696;fill-opacity:1;stroke-width:0"
           d="m 100.81374,102.35152 -10e-6,0.017 -19.821288,-1e-5 9.919103,-9.919096 z" />
        <path
           id="path4-20-5-5-3-6-3"
           style="fill:#033696;fill-opacity:1;stroke-width:0"
           d="m 100.77861,168.74248 -1e-5,-0.017 -19.821293,1e-5 9.919101,9.91911 z" />
        <path
           id="path4-20-5-7-1-1-8"
           style="fill:#033696;fill-opacity:1;stroke-width:0"
           d="m 56.470105,125.81965 0.017,1e-5 -1e-5,19.82129 -9.91911,-9.9191 z" />
        <path
           id="path4-20-5-5-4-1-3-0"
           style="fill:#033696;fill-opacity:1;stroke-width:0"
           d="m 124.97772,125.85478 -0.017,10e-6 1e-5,19.82129 9.91911,-9.9191 z" />
        <path
           id="path6-2-0-2-4"
           style="fill:#1c8deb;fill-opacity:1;stroke-width:0"
           d="m 90.782725,106.3745 v 14.00381 h 14.003815 z" />
      </g>
      <path
         style="font-size:19.7556px;font-family:Cabin;-inkscape-font-specification:Cabin;fill:#033696;stroke:#000000;stroke-width:0.1"
         d="m 91.558169,-30.880224 -1.185336,-0.968024 c 1.007535,-1.501426 1.461914,-3.002851 1.461914,-4.721588 0,-4.385744 -2.864562,-7.191039 -6.815682,-7.191039 -3.95112,0 -6.815682,2.805295 -6.815682,7.191039 0,4.385743 2.864562,7.191038 6.815682,7.191038 1.540937,0 2.923829,-0.434623 4.26721,-1.402648 l 1.284114,1.066803 z m -6.539104,-11.181669 c 3.200407,0 4.958656,2.410183 4.958656,5.492057 0,1.106313 -0.07902,2.311405 -0.948269,3.674541 l -2.074338,-1.837271 -0.98778,1.205092 2.034827,1.65947 c -0.889002,0.651935 -2.094094,0.790224 -2.983096,0.790224 -3.200407,0 -4.761099,-2.410183 -4.761099,-5.492056 0,-3.081874 1.560692,-5.492057 4.761099,-5.492057 z m 16.634225,12.406517 v -9.680244 h -1.778004 v 7.191038 c -0.474135,0.770468 -1.343381,1.106314 -2.232383,1.106314 -1.600204,0 -2.252139,-1.106314 -2.252139,-3.160896 V -39.33562 H 93.61276 v 5.630346 c 0,2.904073 1.30387,4.247454 3.575764,4.247454 1.264358,0 2.074338,-0.414868 2.686762,-1.264359 l 0.197554,1.066803 z m 6.47983,0.276578 c 4.78085,0 5.39328,-2.390428 5.39328,-3.852342 0,-3.002851 -2.66701,-3.733808 -5.09695,-4.484521 -1.65947,-0.513646 -2.98309,-1.027291 -2.98309,-2.311405 0,-1.442159 1.67922,-2.034827 3.10163,-2.034827 1.38289,0 2.62749,0.572912 3.97087,1.244603 l 0.19756,-1.995316 c -0.79023,-0.434623 -2.54847,-0.948269 -4.34623,-0.948269 -3.79308,0 -4.97841,2.271894 -4.97841,3.990631 0,2.370672 2.21262,3.042363 4.50427,3.77332 1.99532,0.632179 3.57577,1.224847 3.57577,2.78554 0,1.560692 -1.60021,2.133604 -3.29919,2.133604 -1.87678,0 -3.39796,-0.711201 -4.30672,-1.382892 l -0.25682,2.192872 c 0.84949,0.454379 2.4892,0.889002 4.52403,0.889002 z m 11.91261,-0.07902 c 2.86456,0 4.32648,-2.212628 4.32648,-5.037678 0,-2.647251 -1.60021,-5.037678 -4.30673,-5.037678 -1.58044,0 -2.42993,0.572912 -3.25967,1.580448 l -0.19756,-1.382892 h -1.38289 v 14.461099 h 1.77801 v -6.005703 c 0.73095,0.948269 2.17311,1.422404 3.04236,1.422404 z m -0.19756,-8.494908 c 1.69898,0 2.70652,1.48167 2.70652,3.45723 0,1.896537 -1.00754,3.45723 -2.70652,3.45723 -1.4224,0 -2.94358,-1.027292 -2.94358,-3.45723 0,-2.331161 1.52118,-3.45723 2.94358,-3.45723 z m 14.61913,3.45723 c 0.0593,-0.335846 0.079,-0.671691 0.079,-0.948269 0,-2.607739 -1.75825,-4.089409 -4.16843,-4.089409 -3.00285,0 -4.74134,2.252138 -4.74134,4.958655 0,2.78554 1.81751,5.116701 5.23523,5.116701 1.40265,0 2.48921,-0.414868 3.23992,-0.750713 l -0.23707,-1.402648 c -0.86924,0.395112 -1.89653,0.572913 -2.78554,0.572913 -1.83727,0 -3.3782,-0.770469 -3.63503,-3.45723 z m -4.12892,-3.45723 c 1.61996,0 2.37067,0.869246 2.37067,2.232382 h -5.09694 c 0.3556,-1.402647 1.14582,-2.232382 2.72627,-2.232382 z m 10.2729,8.494908 c 1.56069,0 2.37067,-0.355601 2.94358,-0.730958 l -0.23706,-1.422403 c -0.77047,0.375357 -1.61996,0.592668 -2.52872,0.592668 -2.15336,0 -3.18065,-1.382892 -3.18065,-3.496741 0,-2.15336 1.02729,-3.437474 3.18065,-3.437474 0.90876,0 1.73849,0.217311 2.50896,0.592668 l 0.27658,-1.600204 c -0.57291,-0.31609 -1.52118,-0.572912 -2.9831,-0.572912 -3.22016,0 -4.80061,2.192871 -4.80061,5.017922 0,2.706517 1.60021,5.057434 4.82037,5.057434 z m 9.77903,-1.422404 h -0.45438 c -1.9163,0 -2.03483,-0.118533 -2.03483,-1.97556 v -5.096944 h 2.54847 v -1.382892 h -2.54847 v -2.568228 l -1.778,0.1778 v 2.390428 h -1.50143 l -0.15804,1.382892 h 1.65947 v 6.183502 c 0,1.165581 0.69144,2.311406 2.52871,2.311406 h 1.60021 z m 6.69715,-8.810997 h -0.15805 c -1.18534,0 -2.11385,0.632179 -3.27943,1.955804 l -0.21731,-1.600203 h -1.46192 v 9.680244 h 1.89654 v -6.835438 c 0.33585,-0.612424 1.40265,-1.244603 2.21263,-1.244603 h 0.61242 z m 9.20609,8.810997 h -0.1778 c -1.0273,0 -1.10632,-0.651934 -1.10632,-2.034826 v -1.97556 c 0,-3.496742 -0.96802,-4.642566 -3.41772,-4.642566 -1.28411,0 -2.50896,0.414867 -3.27943,1.007535 l 0.25683,1.442159 c 1.02729,-0.711202 1.81751,-0.869246 2.54847,-0.869246 1.36313,0 2.11385,0.395112 2.11385,2.232382 -2.46945,0.03951 -5.78839,0.730958 -5.78839,3.45723 0,1.61996 1.18533,2.805296 2.98309,2.805296 1.24461,0 2.23239,-0.572913 2.96334,-1.422404 0.39511,0.908758 0.77047,1.422404 2.48921,1.422404 h 0.13829 z m -3.06212,-1.303869 c -0.57291,0.790224 -1.52118,1.303869 -2.46945,1.303869 -0.889,0 -1.50143,-0.434623 -1.50143,-1.48167 0,-1.442158 1.14583,-2.034826 3.97088,-2.133604 z"
         id="text11-3-15-0"
         aria-label="QuSpectra" />
      <path
         style="font-size:6.35px;font-family:Cabin;-inkscape-font-specification:Cabin;fill:#033696;stroke:#000000;stroke-width:0.1"
         d="m 89.160558,-20.292618 -0.381,-0.31115 c 0.32385,-0.4826 0.4699,-0.9652 0.4699,-1.51765 0,-1.4097 -0.92075,-2.3114 -2.19075,-2.3114 -1.27,0 -2.19075,0.9017 -2.19075,2.3114 0,1.4097 0.92075,2.3114 2.19075,2.3114 0.4953,0 0.9398,-0.1397 1.3716,-0.45085 l 0.41275,0.3429 z m -2.10185,-3.5941 c 1.0287,0 1.59385,0.7747 1.59385,1.7653 0,0.3556 -0.0254,0.74295 -0.3048,1.1811 l -0.66675,-0.59055 -0.3175,0.38735 0.65405,0.5334 c -0.28575,0.20955 -0.6731,0.254 -0.95885,0.254 -1.0287,0 -1.53035,-0.7747 -1.53035,-1.7653 0,-0.9906 0.50165,-1.7653 1.53035,-1.7653 z m 4.737098,4.0767 c 1.25095,0 1.8415,-0.75565 1.8415,-1.97485 v -2.55905 h -0.60325 v 2.26695 c 0,0.86995 -0.18415,1.72085 -1.23825,1.72085 -1.0541,0 -1.23825,-0.84455 -1.23825,-1.72085 v -2.26695 h -0.60325 v 2.55905 c 0,1.2192 0.59055,1.97485 1.8415,1.97485 z m 6.064251,-0.0889 -1.59385,-4.445 h -0.635 l -1.59385,4.445 h 0.635 l 0.42545,-1.20015 h 1.7018 l 0.42545,1.20015 z m -1.25095,-1.74625 h -1.3208 l 0.6604,-1.8542 z m 5.257793,1.74625 v -4.445 h -0.6096 v 3.3274 l -2.190748,-3.3274 h -0.65405 v 4.445 h 0.60325 v -3.51155 l 2.336798,3.51155 z m 3.7973,-3.8989 v -0.5461 h -3.19405 v 0.5461 h 1.2954 v 3.8989 h 0.60325 v -3.8989 z m 2.39396,3.9878 c 1.25095,0 1.8415,-0.75565 1.8415,-1.97485 v -2.55905 h -0.60325 v 2.26695 c 0,0.86995 -0.18415,1.72085 -1.23825,1.72085 -1.0541,0 -1.23825,-0.84455 -1.23825,-1.72085 v -2.26695 h -0.60325 v 2.55905 c 0,1.2192 0.59055,1.97485 1.8415,1.97485 z m 7.09931,-0.0889 -0.59055,-4.445 h -0.5207 l -1.1557,2.20345 -1.1684,-2.20345 h -0.51435 l -0.5969,4.445 h 0.635 l 0.4191,-3.35915 1.2319,2.30505 1.2065,-2.30505 0.4191,3.35915 z m 3.51156,0.0889 c 1.5367,0 1.73355,-0.76835 1.73355,-1.23825 0,-0.9652 -0.85725,-1.20015 -1.6383,-1.44145 -0.5334,-0.1651 -0.95885,-0.3302 -0.95885,-0.74295 0,-0.46355 0.53975,-0.65405 0.99695,-0.65405 0.4445,0 0.84455,0.18415 1.27635,0.40005 l 0.0635,-0.64135 c -0.254,-0.1397 -0.81915,-0.3048 -1.397,-0.3048 -1.2192,0 -1.6002,0.73025 -1.6002,1.2827 0,0.762 0.7112,0.9779 1.4478,1.21285 0.64135,0.2032 1.14935,0.3937 1.14935,0.89535 0,0.50165 -0.51435,0.6858 -1.06045,0.6858 -0.60325,0 -1.0922,-0.2286 -1.3843,-0.4445 l -0.0826,0.70485 c 0.27305,0.14605 0.8001,0.28575 1.45415,0.28575 z m 5.20699,-0.0889 v -0.5461 h -2.16535 v -1.50495 h 1.6764 v -0.5461 h -1.6764 v -1.30175 h 2.1082 v -0.5461 h -2.71145 v 4.445 z m 4.20371,0 v -4.445 h -0.6096 v 3.3274 l -2.19075,-3.3274 h -0.65405 v 4.445 h 0.60325 v -3.51155 l 2.3368,3.51155 z m 2.286,0.0889 c 1.5367,0 1.73355,-0.76835 1.73355,-1.23825 0,-0.9652 -0.85725,-1.20015 -1.6383,-1.44145 -0.5334,-0.1651 -0.95885,-0.3302 -0.95885,-0.74295 0,-0.46355 0.53975,-0.65405 0.99695,-0.65405 0.4445,0 0.84455,0.18415 1.27635,0.40005 l 0.0635,-0.64135 c -0.254,-0.1397 -0.81915,-0.3048 -1.397,-0.3048 -1.2192,0 -1.6002,0.73025 -1.6002,1.2827 0,0.762 0.7112,0.9779 1.4478,1.21285 0.64135,0.2032 1.14935,0.3937 1.14935,0.89535 0,0.50165 -0.51435,0.6858 -1.06045,0.6858 -0.60325,0 -1.0922,-0.2286 -1.3843,-0.4445 l -0.0826,0.70485 c 0.27305,0.14605 0.8001,0.28575 1.45415,0.28575 z m 4.3688,0 c 1.27,0 2.19075,-0.9017 2.19075,-2.3114 0,-1.4097 -0.92075,-2.3114 -2.19075,-2.3114 -1.27,0 -2.19075,0.9017 -2.19075,2.3114 0,1.4097 0.92075,2.3114 2.19075,2.3114 z m 0,-4.0767 c 1.016,0 1.53035,0.78105 1.53035,1.7653 0,0.98425 -0.51435,1.7653 -1.53035,1.7653 -1.016,0 -1.53035,-0.78105 -1.53035,-1.7653 0,-0.98425 0.51435,-1.7653 1.53035,-1.7653 z m 6.14679,3.9878 -1.03505,-1.8923 c 0.51435,-0.2413 0.8128,-0.70485 0.8128,-1.25095 0,-0.99695 -0.6096,-1.30175 -1.5367,-1.30175 h -1.44145 v 4.445 h 0.635 v -1.73355 h 0.93345 l 0.98425,1.73355 z m -1.7653,-3.95605 c 0.60325,0 0.9144,0.29845 0.9144,0.8128 0,0.6223 -0.42545,0.8255 -0.75565,0.8255 h -0.95885 v -1.6383 z m 3.66396,4.04495 c 1.5367,0 1.73355,-0.76835 1.73355,-1.23825 0,-0.9652 -0.85725,-1.20015 -1.6383,-1.44145 -0.5334,-0.1651 -0.95885,-0.3302 -0.95885,-0.74295 0,-0.46355 0.53975,-0.65405 0.99695,-0.65405 0.4445,0 0.84455,0.18415 1.27635,0.40005 l 0.0635,-0.64135 c -0.254,-0.1397 -0.81915,-0.3048 -1.397,-0.3048 -1.2192,0 -1.6002,0.73025 -1.6002,1.2827 0,0.762 0.7112,0.9779 1.4478,1.21285 0.64135,0.2032 1.14935,0.3937 1.14935,0.89535 0,0.50165 -0.51435,0.6858 -1.06045,0.6858 -0.60325,0 -1.0922,-0.2286 -1.3843,-0.4445 l -0.0825,0.70485 c 0.27305,0.14605 0.8001,0.28575 1.45415,0.28575 z"
         id="text11-3-1-2"
         aria-label="QUANTUM SENSORS" />
    </g>
  </g>
</svg>
