<?xml version="1.0" encoding="UTF-8" standalone="no"?>
<!-- Created with Inkscape (http://www.inkscape.org/) -->

<svg
   width="250"
   height="50"
   viewBox="0 0 66.145816 13.229164"
   version="1.1"
   id="svg1"
   inkscape:version="1.3.2 (1:1.3.2+202311252150+091e20ef0f)"
   sodipodi:docname="logo2.svg"
   xmlns:inkscape="http://www.inkscape.org/namespaces/inkscape"
   xmlns:sodipodi="http://sodipodi.sourceforge.net/DTD/sodipodi-0.dtd"
   xmlns:xlink="http://www.w3.org/1999/xlink"
   xmlns="http://www.w3.org/2000/svg"
   xmlns:svg="http://www.w3.org/2000/svg">
  <sodipodi:namedview
     id="namedview1"
     pagecolor="#ffffff"
     bordercolor="#000000"
     borderopacity="0.25"
     inkscape:showpageshadow="2"
     inkscape:pageopacity="0.0"
     inkscape:pagecheckerboard="0"
     inkscape:deskcolor="#d1d1d1"
     inkscape:document-units="mm"
     inkscape:zoom="2.4264833"
     inkscape:cx="98.084333"
     inkscape:cy="4.1211905"
     inkscape:window-width="1662"
     inkscape:window-height="1092"
     inkscape:window-x="1644"
     inkscape:window-y="242"
     inkscape:window-maximized="0"
     inkscape:current-layer="layer1" />
  <defs
     id="defs1">
    <linearGradient
       inkscape:collect="always"
       xlink:href="#57c5c572-8ba7-4573-8aff-11cd4e76ef22"
       id="linearGradient5"
       x1="0"
       y1="0"
       x2="32"
       y2="0"
       gradientUnits="userSpaceOnUse" />
    <linearGradient
       data-v-fde0c5aa=""
       gradientTransform="rotate(25)"
       id="57c5c572-8ba7-4573-8aff-11cd4e76ef22"
       x1="0"
       y1="0"
       x2="1"
       y2="0">
      <stop
         data-v-fde0c5aa=""
         offset="0%"
         stop-color="#422F75"
         stop-opacity="1"
         id="stop2" />
      <stop
         data-v-fde0c5aa=""
         offset="100%"
         stop-color="#C0B3EC"
         stop-opacity="1"
         id="stop3" />
    </linearGradient>
    <linearGradient
       inkscape:collect="always"
       xlink:href="#57c5c572-8ba7-4573-8aff-11cd4e76ef22"
       id="linearGradient1"
       gradientUnits="userSpaceOnUse"
       x1="0"
       y1="0"
       x2="32"
       y2="0" />
  </defs>
  <g
     inkscape:label="Layer 1"
     inkscape:groupmode="layer"
     id="layer1">
    <g
       data-v-fde0c5aa=""
       id="bb70165a-c505-4f19-8701-7607125b83ec"
       fill="#282335"
       transform="matrix(0.88224008,0,0,0.88224008,11.457119,-0.92750466)"
       style="fill:#000080">
      <path
         d="m 0.7,7.7 c 0,1.46 0.45,2.66 1.34,3.6 0.89,0.94 2.02,1.41 3.38,1.41 1.23,0 2.28,-0.4 3.16,-1.2 L 9.74,12.6 H 10.3 L 8.85,11.24 C 9.71,10.29 10.14,9.11 10.14,7.7 10.14,6.24 9.69,5.04 8.8,4.1 7.91,3.16 6.78,2.69 5.42,2.69 4.06,2.69 2.93,3.16 2.04,4.1 1.15,5.04 0.7,6.24 0.7,7.7 Z m 4.56,0.7 3.01,2.81 c -0.78,0.73 -1.73,1.1 -2.85,1.1 -1.24,0 -2.27,-0.44 -3.08,-1.32 C 1.53,10.11 1.12,9.02 1.12,7.7 1.12,6.38 1.53,5.29 2.34,4.41 3.15,3.53 4.18,3.09 5.42,3.09 c 1.24,0 2.27,0.44 3.08,1.32 0.81,0.88 1.22,1.97 1.22,3.29 0,1.29 -0.4,2.37 -1.18,3.25 L 5.82,8.4 Z m 10.85,1.68 c 0,0.56 -0.2,1.07 -0.6,1.53 -0.41,0.45 -0.92,0.68 -1.52,0.68 -1.06,0 -1.59,-0.69 -1.59,-2.07 V 6.16 h -0.42 v 4.2 c 0,0.72 0.16,1.29 0.48,1.71 0.32,0.43 0.78,0.64 1.39,0.64 0.58,0 1.07,-0.14 1.45,-0.41 0.38,-0.28 0.66,-0.66 0.81,-1.16 v 1.46 h 0.42 V 6.16 H 16.11 Z M 18.66,9.74 18.28,9.9 c 0.63,1.87 1.68,2.81 3.15,2.81 0.92,0 1.61,-0.26 2.08,-0.78 0.46,-0.52 0.7,-1.16 0.7,-1.92 0,-0.35 -0.06,-0.66 -0.18,-0.95 C 23.91,8.78 23.78,8.55 23.64,8.37 23.49,8.19 23.29,8.02 23.03,7.86 22.77,7.7 22.56,7.58 22.39,7.5 22.23,7.43 22.01,7.34 21.73,7.22 21.69,7.21 21.57,7.16 21.38,7.08 21.18,7.01 21.06,6.96 21.01,6.94 20.97,6.91 20.86,6.87 20.69,6.8 20.52,6.73 20.41,6.67 20.36,6.64 20.31,6.6 20.22,6.54 20.09,6.45 19.96,6.37 19.87,6.3 19.82,6.24 19.78,6.18 19.71,6.1 19.63,6 19.54,5.9 19.49,5.8 19.45,5.7 19.42,5.61 19.39,5.5 19.36,5.38 19.33,5.25 19.32,5.12 19.32,4.98 c 0,-0.57 0.2,-1.03 0.59,-1.36 0.4,-0.33 0.89,-0.5 1.48,-0.5 1.13,0 1.92,0.65 2.35,1.95 L 24.15,4.9 C 23.94,4.23 23.61,3.69 23.14,3.29 22.68,2.89 22.1,2.69 21.41,2.69 c -0.69,0 -1.29,0.21 -1.8,0.64 -0.51,0.43 -0.77,1 -0.77,1.71 0,0.35 0.08,0.67 0.22,0.95 0.15,0.28 0.36,0.52 0.65,0.72 0.28,0.2 0.54,0.36 0.77,0.46 0.22,0.11 0.52,0.24 0.88,0.38 0.28,0.1 0.48,0.17 0.58,0.22 0.1,0.05 0.27,0.13 0.52,0.25 0.24,0.11 0.41,0.22 0.52,0.32 0.11,0.11 0.23,0.24 0.38,0.41 0.14,0.17 0.24,0.36 0.3,0.57 0.06,0.22 0.08,0.46 0.08,0.73 0,0.67 -0.19,1.22 -0.56,1.63 -0.38,0.41 -0.95,0.61 -1.7,0.61 -1.24,0 -2.17,-0.85 -2.82,-2.55 z m 13.6,-0.36 c 0,-1.01 -0.3,-1.82 -0.89,-2.42 -0.6,-0.61 -1.34,-0.91 -2.24,-0.91 -0.61,0 -1.15,0.18 -1.61,0.54 -0.47,0.37 -0.8,0.85 -1,1.45 V 6.16 H 26.1 v 9.52 h 0.42 v -4.96 c 0.2,0.6 0.53,1.08 1,1.45 0.46,0.36 1,0.54 1.61,0.54 0.9,0 1.64,-0.3 2.24,-0.91 0.59,-0.6 0.89,-1.41 0.89,-2.42 z m -0.44,0 c 0,0.9 -0.27,1.61 -0.8,2.13 -0.54,0.52 -1.15,0.78 -1.84,0.78 -0.77,0 -1.4,-0.28 -1.91,-0.84 -0.5,-0.56 -0.75,-1.25 -0.75,-2.07 0,-0.82 0.25,-1.51 0.75,-2.07 0.51,-0.56 1.14,-0.84 1.91,-0.84 0.69,0 1.3,0.26 1.84,0.78 0.53,0.52 0.8,1.23 0.8,2.13 z m 7,-0.32 H 33.98 C 34,8.38 34.25,7.77 34.73,7.25 c 0.48,-0.52 1.06,-0.78 1.74,-0.78 0.68,0 1.24,0.25 1.68,0.77 0.44,0.51 0.66,1.12 0.67,1.82 z m -4.87,0.42 h 5.31 c 0.01,-0.05 0.01,-0.1 0.01,-0.16 0,-0.99 -0.26,-1.79 -0.78,-2.38 -0.52,-0.6 -1.19,-0.89 -2.02,-0.89 -0.85,0 -1.55,0.31 -2.11,0.94 -0.56,0.62 -0.84,1.42 -0.84,2.39 0,0.95 0.29,1.75 0.88,2.38 0.59,0.63 1.28,0.95 2.07,0.95 1.23,0 2.15,-0.58 2.76,-1.75 l -0.37,-0.22 c -0.54,1.02 -1.33,1.54 -2.36,1.54 -0.69,0 -1.29,-0.27 -1.78,-0.81 -0.49,-0.55 -0.75,-1.21 -0.77,-1.99 z m 6.94,-0.1 c 0,-0.83 0.25,-1.52 0.75,-2.08 0.5,-0.55 1.15,-0.83 1.94,-0.83 0.94,0 1.64,0.36 2.1,1.09 V 6.87 c -0.47,-0.55 -1.17,-0.82 -2.1,-0.82 -0.88,0 -1.63,0.31 -2.22,0.94 -0.6,0.63 -0.9,1.43 -0.9,2.39 0,0.96 0.3,1.76 0.9,2.39 0.59,0.63 1.34,0.94 2.22,0.94 0.94,0 1.64,-0.27 2.1,-0.82 V 11.2 c -0.23,0.43 -0.52,0.72 -0.87,0.87 -0.34,0.15 -0.75,0.22 -1.23,0.22 -0.79,0 -1.44,-0.28 -1.94,-0.83 -0.5,-0.56 -0.75,-1.25 -0.75,-2.08 z m 6.89,-5.46 v 2.24 h -1.05 v 0.42 h 1.05 V 12.6 H 48.2 V 6.58 h 1.05 V 6.16 H 48.2 V 3.92 Z m 5.6,3.04 0.25,-0.39 C 53.27,6.22 52.92,6.05 52.57,6.05 c -0.78,0 -1.28,0.46 -1.5,1.38 V 6.16 h -0.42 v 6.44 h 0.42 V 8.68 c 0,-0.51 0.13,-1 0.38,-1.47 0.25,-0.47 0.57,-0.7 0.97,-0.7 0.42,0 0.74,0.15 0.96,0.45 z m 1.49,0.36 c 0.37,-0.29 0.72,-0.51 1.04,-0.66 0.32,-0.15 0.72,-0.22 1.2,-0.22 1.13,0 1.7,0.51 1.7,1.54 V 9.13 C 58.32,8.82 57.69,8.67 56.94,8.67 c -0.69,0 -1.29,0.18 -1.79,0.54 -0.5,0.35 -0.75,0.86 -0.75,1.5 0,0.68 0.21,1.19 0.63,1.53 0.42,0.33 0.93,0.5 1.52,0.5 0.59,0 1.09,-0.13 1.49,-0.39 0.39,-0.26 0.65,-0.61 0.77,-1.04 v 1.29 h 0.42 V 7.98 c 0,-0.64 -0.16,-1.13 -0.5,-1.46 -0.34,-0.33 -0.88,-0.5 -1.62,-0.5 -0.37,0 -0.72,0.05 -1.05,0.16 -0.33,0.11 -0.58,0.22 -0.75,0.32 -0.18,0.11 -0.4,0.26 -0.67,0.46 z m -0.03,3.39 c 0,-0.51 0.2,-0.92 0.59,-1.21 0.4,-0.29 0.9,-0.44 1.51,-0.44 0.67,0 1.3,0.17 1.87,0.5 v 0.8 c 0,0.58 -0.22,1.05 -0.65,1.43 -0.44,0.37 -0.96,0.56 -1.54,0.56 -0.56,0 -1,-0.14 -1.31,-0.42 -0.32,-0.28 -0.47,-0.69 -0.47,-1.22 z"
         id="path2"
         style="fill:#000080" />
    </g>
    <g
       data-v-fde0c5aa=""
       id="cc7f5a48-4253-4cf2-b65b-e173ffab017a"
       stroke="none"
       fill="url(#57c5c572-8ba7-4573-8aff-11cd4e76ef22)"
       transform="matrix(0.31359119,0,0,0.31359119,0.66209863,1.297121)"
       style="fill:url(#linearGradient5)">
      <path
         d="M 0,16.024 15.976,32 32,15.976 16.024,0 Z m 15.989,7.323 -7.336,-7.336 14.694,-0.022 z"
         id="path3"
         style="fill:url(#linearGradient1)" />
    </g>
  </g>
</svg>
